<svg width="2464" height="715" viewBox="0 0 2464 715" fill="none" xmlns="http://www.w3.org/2000/svg">
<rect width="2464" height="715" fill="white"/>
<rect x="189" y="280" width="289" height="155" rx="20" fill="#2E4B99"/>
<rect x="537" y="280" width="289" height="155" rx="20" fill="#2E4B99"/>
<path d="M304.601 340.184H300.713C300.642 339.681 300.497 339.234 300.278 338.843C300.059 338.446 299.777 338.109 299.434 337.831C299.091 337.553 298.694 337.34 298.244 337.192C297.801 337.044 297.318 336.97 296.797 336.97C295.856 336.97 295.037 337.204 294.338 337.671C293.64 338.133 293.098 338.808 292.714 339.695C292.329 340.577 292.137 341.648 292.137 342.909C292.137 344.205 292.329 345.294 292.714 346.176C293.104 347.058 293.649 347.724 294.347 348.174C295.046 348.623 295.853 348.848 296.771 348.848C297.286 348.848 297.762 348.78 298.2 348.644C298.644 348.508 299.038 348.31 299.381 348.049C299.724 347.783 300.008 347.46 300.233 347.082C300.464 346.703 300.624 346.271 300.713 345.786L304.601 345.803C304.5 346.638 304.249 347.443 303.846 348.218C303.45 348.987 302.914 349.677 302.24 350.287C301.571 350.89 300.772 351.37 299.843 351.725C298.919 352.074 297.875 352.249 296.709 352.249C295.087 352.249 293.637 351.882 292.358 351.148C291.086 350.414 290.08 349.351 289.34 347.961C288.606 346.57 288.239 344.886 288.239 342.909C288.239 340.926 288.612 339.24 289.358 337.849C290.104 336.458 291.116 335.398 292.394 334.67C293.672 333.937 295.111 333.57 296.709 333.57C297.762 333.57 298.739 333.718 299.638 334.013C300.544 334.309 301.346 334.741 302.044 335.31C302.743 335.872 303.311 336.561 303.749 337.378C304.193 338.195 304.477 339.13 304.601 340.184ZM311.069 344.116V352H307.287V333.818H310.962V340.77H311.122C311.43 339.965 311.927 339.334 312.613 338.879C313.3 338.417 314.161 338.186 315.197 338.186C316.144 338.186 316.969 338.393 317.674 338.808C318.384 339.216 318.934 339.805 319.325 340.574C319.721 341.338 319.917 342.252 319.911 343.317V352H316.129V343.992C316.135 343.152 315.922 342.498 315.49 342.03C315.064 341.563 314.466 341.329 313.696 341.329C313.181 341.329 312.726 341.438 312.329 341.657C311.939 341.876 311.631 342.196 311.406 342.616C311.187 343.03 311.074 343.531 311.069 344.116ZM329.048 352.266C327.669 352.266 326.477 351.973 325.471 351.387C324.47 350.796 323.698 349.973 323.153 348.919C322.609 347.86 322.337 346.632 322.337 345.235C322.337 343.826 322.609 342.595 323.153 341.542C323.698 340.482 324.47 339.66 325.471 339.074C326.477 338.482 327.669 338.186 329.048 338.186C330.427 338.186 331.617 338.482 332.617 339.074C333.623 339.66 334.399 340.482 334.943 341.542C335.488 342.595 335.76 343.826 335.76 345.235C335.76 346.632 335.488 347.86 334.943 348.919C334.399 349.973 333.623 350.796 332.617 351.387C331.617 351.973 330.427 352.266 329.048 352.266ZM329.066 349.337C329.694 349.337 330.217 349.159 330.638 348.804C331.058 348.443 331.374 347.952 331.587 347.33C331.806 346.709 331.916 346.002 331.916 345.208C331.916 344.415 331.806 343.708 331.587 343.087C331.374 342.465 331.058 341.974 330.638 341.613C330.217 341.252 329.694 341.071 329.066 341.071C328.433 341.071 327.9 341.252 327.468 341.613C327.042 341.974 326.719 342.465 326.5 343.087C326.287 343.708 326.181 344.415 326.181 345.208C326.181 346.002 326.287 346.709 326.5 347.33C326.719 347.952 327.042 348.443 327.468 348.804C327.9 349.159 328.433 349.337 329.066 349.337ZM344.38 352.266C343.001 352.266 341.809 351.973 340.803 351.387C339.802 350.796 339.03 349.973 338.486 348.919C337.941 347.86 337.669 346.632 337.669 345.235C337.669 343.826 337.941 342.595 338.486 341.542C339.03 340.482 339.802 339.66 340.803 339.074C341.809 338.482 343.001 338.186 344.38 338.186C345.759 338.186 346.949 338.482 347.949 339.074C348.955 339.66 349.731 340.482 350.275 341.542C350.82 342.595 351.092 343.826 351.092 345.235C351.092 346.632 350.82 347.86 350.275 348.919C349.731 349.973 348.955 350.796 347.949 351.387C346.949 351.973 345.759 352.266 344.38 352.266ZM344.398 349.337C345.026 349.337 345.549 349.159 345.97 348.804C346.39 348.443 346.706 347.952 346.919 347.33C347.138 346.709 347.248 346.002 347.248 345.208C347.248 344.415 347.138 343.708 346.919 343.087C346.706 342.465 346.39 341.974 345.97 341.613C345.549 341.252 345.026 341.071 344.398 341.071C343.765 341.071 343.232 341.252 342.8 341.613C342.374 341.974 342.051 342.465 341.832 343.087C341.619 343.708 341.513 344.415 341.513 345.208C341.513 346.002 341.619 346.709 341.832 347.33C342.051 347.952 342.374 348.443 342.8 348.804C343.232 349.159 343.765 349.337 344.398 349.337ZM364.897 342.252L361.435 342.465C361.376 342.169 361.248 341.903 361.053 341.666C360.858 341.424 360.6 341.231 360.281 341.089C359.967 340.941 359.591 340.867 359.153 340.867C358.567 340.867 358.073 340.991 357.671 341.24C357.268 341.483 357.067 341.808 357.067 342.217C357.067 342.542 357.197 342.817 357.457 343.042C357.718 343.267 358.165 343.448 358.798 343.584L361.266 344.081C362.592 344.353 363.58 344.791 364.231 345.395C364.882 345.999 365.208 346.792 365.208 347.774C365.208 348.668 364.944 349.452 364.418 350.127C363.897 350.801 363.181 351.328 362.269 351.707C361.364 352.08 360.319 352.266 359.135 352.266C357.33 352.266 355.892 351.891 354.821 351.139C353.755 350.381 353.131 349.351 352.948 348.049L356.667 347.854C356.78 348.404 357.052 348.825 357.484 349.115C357.916 349.399 358.47 349.541 359.144 349.541C359.807 349.541 360.34 349.414 360.742 349.159C361.151 348.899 361.358 348.564 361.364 348.156C361.358 347.813 361.213 347.531 360.929 347.312C360.645 347.088 360.207 346.916 359.615 346.798L357.253 346.327C355.922 346.061 354.93 345.599 354.279 344.942C353.634 344.285 353.312 343.448 353.312 342.43C353.312 341.554 353.548 340.799 354.022 340.166C354.501 339.533 355.173 339.044 356.037 338.701C356.907 338.358 357.925 338.186 359.091 338.186C360.813 338.186 362.169 338.55 363.157 339.278C364.151 340.006 364.731 340.997 364.897 342.252ZM373.804 352.266C372.401 352.266 371.194 351.982 370.182 351.414C369.175 350.84 368.4 350.029 367.856 348.982C367.311 347.928 367.039 346.682 367.039 345.244C367.039 343.841 367.311 342.61 367.856 341.551C368.4 340.491 369.167 339.666 370.155 339.074C371.149 338.482 372.315 338.186 373.653 338.186C374.552 338.186 375.39 338.331 376.165 338.621C376.947 338.905 377.627 339.334 378.207 339.908C378.793 340.482 379.249 341.205 379.574 342.075C379.9 342.939 380.063 343.951 380.063 345.111V346.15H368.548V343.806H376.503C376.503 343.261 376.384 342.779 376.148 342.359C375.911 341.938 375.582 341.61 375.162 341.373C374.748 341.131 374.265 341.009 373.715 341.009C373.141 341.009 372.632 341.142 372.188 341.409C371.75 341.669 371.407 342.021 371.158 342.465C370.91 342.903 370.782 343.391 370.776 343.93V346.158C370.776 346.833 370.901 347.416 371.149 347.907C371.404 348.399 371.762 348.777 372.224 349.044C372.685 349.31 373.233 349.443 373.866 349.443C374.286 349.443 374.671 349.384 375.02 349.266C375.369 349.147 375.668 348.97 375.917 348.733C376.165 348.496 376.355 348.206 376.485 347.863L379.983 348.094C379.805 348.934 379.441 349.668 378.891 350.295C378.346 350.917 377.642 351.402 376.778 351.751C375.92 352.095 374.928 352.266 373.804 352.266ZM281.796 382H275.351V363.818H281.849C283.678 363.818 285.253 364.182 286.572 364.91C287.892 365.632 288.907 366.671 289.617 368.026C290.334 369.382 290.692 371.003 290.692 372.891C290.692 374.785 290.334 376.413 289.617 377.774C288.907 379.135 287.886 380.18 286.555 380.908C285.229 381.636 283.643 382 281.796 382ZM279.195 378.706H281.636C282.773 378.706 283.728 378.505 284.504 378.103C285.285 377.694 285.871 377.064 286.262 376.212C286.658 375.353 286.856 374.247 286.856 372.891C286.856 371.548 286.658 370.45 286.262 369.598C285.871 368.745 285.288 368.118 284.513 367.716C283.737 367.313 282.782 367.112 281.645 367.112H279.195V378.706ZM293.468 382V368.364H297.25V382H293.468ZM295.368 366.606C294.806 366.606 294.323 366.419 293.921 366.047C293.524 365.668 293.326 365.215 293.326 364.688C293.326 364.167 293.524 363.721 293.921 363.348C294.323 362.969 294.806 362.779 295.368 362.779C295.93 362.779 296.41 362.969 296.806 363.348C297.209 363.721 297.41 364.167 297.41 364.688C297.41 365.215 297.209 365.668 296.806 366.047C296.41 366.419 295.93 366.606 295.368 366.606ZM311.626 372.252L308.163 372.465C308.104 372.169 307.977 371.903 307.782 371.666C307.586 371.424 307.329 371.231 307.009 371.089C306.695 370.941 306.32 370.867 305.882 370.867C305.296 370.867 304.802 370.991 304.399 371.24C303.997 371.483 303.795 371.808 303.795 372.217C303.795 372.542 303.926 372.817 304.186 373.042C304.446 373.267 304.893 373.448 305.527 373.584L307.995 374.081C309.32 374.353 310.309 374.791 310.96 375.395C311.611 375.999 311.936 376.792 311.936 377.774C311.936 378.668 311.673 379.452 311.146 380.127C310.625 380.801 309.909 381.328 308.998 381.707C308.092 382.08 307.048 382.266 305.864 382.266C304.059 382.266 302.621 381.891 301.549 381.139C300.484 380.381 299.86 379.351 299.676 378.049L303.396 377.854C303.508 378.404 303.781 378.825 304.213 379.115C304.645 379.399 305.198 379.541 305.873 379.541C306.536 379.541 307.068 379.414 307.471 379.159C307.879 378.899 308.086 378.564 308.092 378.156C308.086 377.813 307.941 377.531 307.657 377.312C307.373 377.088 306.935 376.916 306.343 376.798L303.982 376.327C302.65 376.061 301.659 375.599 301.008 374.942C300.363 374.285 300.04 373.448 300.04 372.43C300.04 371.554 300.277 370.799 300.75 370.166C301.23 369.533 301.901 369.044 302.766 368.701C303.636 368.358 304.654 368.186 305.82 368.186C307.542 368.186 308.897 368.55 309.886 369.278C310.88 370.006 311.46 370.997 311.626 372.252ZM320.479 382.266C319.082 382.266 317.881 381.97 316.875 381.379C315.874 380.781 315.105 379.952 314.566 378.893C314.034 377.833 313.767 376.614 313.767 375.235C313.767 373.838 314.037 372.613 314.575 371.56C315.12 370.5 315.892 369.675 316.892 369.083C317.893 368.485 319.082 368.186 320.461 368.186C321.651 368.186 322.693 368.402 323.586 368.834C324.48 369.266 325.187 369.873 325.708 370.654C326.229 371.435 326.516 372.353 326.569 373.406H323C322.9 372.726 322.633 372.178 322.201 371.764C321.775 371.344 321.216 371.134 320.523 371.134C319.938 371.134 319.426 371.293 318.988 371.613C318.556 371.927 318.218 372.385 317.975 372.989C317.733 373.593 317.612 374.324 317.612 375.182C317.612 376.052 317.73 376.792 317.967 377.401C318.209 378.011 318.55 378.475 318.988 378.795C319.426 379.115 319.938 379.275 320.523 379.275C320.955 379.275 321.343 379.186 321.686 379.008C322.036 378.831 322.323 378.573 322.548 378.236C322.778 377.893 322.929 377.481 323 377.002H326.569C326.51 378.043 326.226 378.961 325.717 379.754C325.214 380.541 324.518 381.157 323.631 381.6C322.743 382.044 321.692 382.266 320.479 382.266ZM328.991 382V368.364H332.773V382H328.991ZM330.891 366.606C330.328 366.606 329.846 366.419 329.443 366.047C329.047 365.668 328.849 365.215 328.849 364.688C328.849 364.167 329.047 363.721 329.443 363.348C329.846 362.969 330.328 362.779 330.891 362.779C331.453 362.779 331.932 362.969 332.329 363.348C332.731 363.721 332.932 364.167 332.932 364.688C332.932 365.215 332.731 365.668 332.329 366.047C331.932 366.419 331.453 366.606 330.891 366.606ZM335.802 387.114V368.364H339.531V370.654H339.7C339.865 370.287 340.105 369.914 340.419 369.536C340.738 369.151 341.153 368.831 341.662 368.577C342.176 368.316 342.816 368.186 343.579 368.186C344.574 368.186 345.491 368.446 346.331 368.967C347.172 369.482 347.844 370.261 348.347 371.302C348.85 372.338 349.101 373.637 349.101 375.2C349.101 376.721 348.856 378.005 348.364 379.053C347.879 380.094 347.216 380.884 346.376 381.423C345.541 381.956 344.606 382.222 343.57 382.222C342.836 382.222 342.212 382.101 341.697 381.858C341.188 381.615 340.771 381.31 340.445 380.944C340.12 380.571 339.871 380.195 339.7 379.816H339.584V387.114H335.802ZM339.504 375.182C339.504 375.993 339.617 376.7 339.842 377.304C340.067 377.907 340.392 378.378 340.818 378.715C341.244 379.047 341.762 379.212 342.372 379.212C342.987 379.212 343.508 379.044 343.934 378.706C344.36 378.363 344.683 377.89 344.902 377.286C345.127 376.676 345.239 375.975 345.239 375.182C345.239 374.395 345.13 373.702 344.911 373.104C344.692 372.507 344.369 372.039 343.943 371.702C343.517 371.364 342.993 371.196 342.372 371.196C341.756 371.196 341.235 371.358 340.809 371.684C340.389 372.009 340.067 372.471 339.842 373.069C339.617 373.667 339.504 374.371 339.504 375.182ZM355.404 363.818V382H351.623V363.818H355.404ZM358.434 382V368.364H362.216V382H358.434ZM360.334 366.606C359.772 366.606 359.289 366.419 358.887 366.047C358.49 365.668 358.292 365.215 358.292 364.688C358.292 364.167 358.49 363.721 358.887 363.348C359.289 362.969 359.772 362.779 360.334 362.779C360.896 362.779 361.376 362.969 361.772 363.348C362.175 363.721 362.376 364.167 362.376 364.688C362.376 365.215 362.175 365.668 361.772 366.047C361.376 366.419 360.896 366.606 360.334 366.606ZM369.028 374.116V382H365.246V368.364H368.85V370.77H369.01C369.312 369.976 369.818 369.349 370.528 368.887C371.238 368.42 372.099 368.186 373.111 368.186C374.058 368.186 374.884 368.393 375.588 368.808C376.293 369.222 376.84 369.814 377.231 370.583C377.621 371.347 377.817 372.258 377.817 373.317V382H374.035V373.992C374.041 373.158 373.827 372.507 373.395 372.039C372.963 371.566 372.369 371.329 371.611 371.329C371.102 371.329 370.652 371.438 370.262 371.657C369.877 371.876 369.575 372.196 369.356 372.616C369.143 373.03 369.033 373.531 369.028 374.116ZM387.012 382.266C385.609 382.266 384.402 381.982 383.39 381.414C382.383 380.84 381.608 380.029 381.064 378.982C380.519 377.928 380.247 376.682 380.247 375.244C380.247 373.841 380.519 372.61 381.064 371.551C381.608 370.491 382.375 369.666 383.363 369.074C384.357 368.482 385.523 368.186 386.861 368.186C387.761 368.186 388.598 368.331 389.373 368.621C390.155 368.905 390.835 369.334 391.415 369.908C392.001 370.482 392.457 371.205 392.782 372.075C393.108 372.939 393.271 373.951 393.271 375.111V376.15H381.756V373.806H389.711C389.711 373.261 389.592 372.779 389.356 372.359C389.119 371.938 388.79 371.61 388.37 371.373C387.956 371.131 387.473 371.009 386.923 371.009C386.349 371.009 385.84 371.142 385.396 371.409C384.958 371.669 384.615 372.021 384.366 372.465C384.118 372.903 383.99 373.391 383.984 373.93V376.158C383.984 376.833 384.109 377.416 384.357 377.907C384.612 378.399 384.97 378.777 385.432 379.044C385.893 379.31 386.441 379.443 387.074 379.443C387.494 379.443 387.879 379.384 388.228 379.266C388.577 379.147 388.876 378.97 389.125 378.733C389.373 378.496 389.563 378.206 389.693 377.863L393.191 378.094C393.013 378.934 392.649 379.668 392.099 380.295C391.554 380.917 390.85 381.402 389.986 381.751C389.128 382.095 388.136 382.266 387.012 382.266Z" fill="white"/>
<path d="M652.208 333.818V352H648.363V333.818H652.208ZM659.081 344.116V352H655.299V338.364H658.904V340.77H659.063C659.365 339.976 659.871 339.349 660.582 338.887C661.292 338.42 662.153 338.186 663.165 338.186C664.112 338.186 664.938 338.393 665.642 338.808C666.346 339.222 666.894 339.814 667.284 340.583C667.675 341.347 667.87 342.258 667.87 343.317V352H664.088V343.992C664.094 343.158 663.881 342.507 663.449 342.039C663.017 341.566 662.422 341.329 661.665 341.329C661.156 341.329 660.706 341.438 660.315 341.657C659.931 341.876 659.629 342.196 659.41 342.616C659.197 343.03 659.087 343.531 659.081 344.116ZM670.851 357.114V338.364H674.58V340.654H674.748C674.914 340.287 675.154 339.914 675.468 339.536C675.787 339.151 676.201 338.831 676.71 338.577C677.225 338.316 677.865 338.186 678.628 338.186C679.622 338.186 680.54 338.446 681.38 338.967C682.221 339.482 682.892 340.261 683.395 341.302C683.898 342.338 684.15 343.637 684.15 345.2C684.15 346.721 683.904 348.005 683.413 349.053C682.928 350.094 682.265 350.884 681.425 351.423C680.59 351.956 679.655 352.222 678.619 352.222C677.885 352.222 677.261 352.101 676.746 351.858C676.237 351.615 675.82 351.31 675.494 350.944C675.169 350.571 674.92 350.195 674.748 349.816H674.633V357.114H670.851ZM674.553 345.182C674.553 345.993 674.666 346.7 674.89 347.304C675.115 347.907 675.441 348.378 675.867 348.715C676.293 349.047 676.811 349.212 677.421 349.212C678.036 349.212 678.557 349.044 678.983 348.706C679.409 348.363 679.732 347.89 679.951 347.286C680.176 346.676 680.288 345.975 680.288 345.182C680.288 344.395 680.179 343.702 679.96 343.104C679.741 342.507 679.418 342.039 678.992 341.702C678.566 341.364 678.042 341.196 677.421 341.196C676.805 341.196 676.284 341.358 675.858 341.684C675.438 342.009 675.115 342.471 674.89 343.069C674.666 343.667 674.553 344.371 674.553 345.182ZM695.416 346.194V338.364H699.198V352H695.567V349.523H695.425C695.117 350.322 694.605 350.964 693.889 351.45C693.179 351.935 692.312 352.178 691.288 352.178C690.376 352.178 689.574 351.97 688.882 351.556C688.189 351.142 687.648 350.553 687.257 349.789C686.873 349.026 686.677 348.112 686.671 347.046V338.364H690.453V346.371C690.459 347.176 690.675 347.813 691.101 348.28C691.528 348.748 692.099 348.982 692.815 348.982C693.271 348.982 693.697 348.878 694.093 348.671C694.49 348.458 694.809 348.144 695.052 347.73C695.301 347.315 695.422 346.804 695.416 346.194ZM709.476 338.364V341.205H701.264V338.364H709.476ZM703.129 335.097H706.911V347.81C706.911 348.159 706.964 348.431 707.07 348.626C707.177 348.816 707.325 348.949 707.514 349.026C707.71 349.103 707.935 349.141 708.189 349.141C708.367 349.141 708.544 349.127 708.722 349.097C708.899 349.061 709.035 349.035 709.13 349.017L709.725 351.831C709.535 351.891 709.269 351.959 708.926 352.036C708.583 352.118 708.165 352.169 707.674 352.186C706.763 352.222 705.964 352.101 705.277 351.822C704.596 351.544 704.067 351.112 703.688 350.526C703.309 349.94 703.123 349.201 703.129 348.307V335.097ZM594.234 382H590.115L596.391 363.818H601.345L607.613 382H603.494L598.939 367.973H598.797L594.234 382ZM593.977 374.853H603.707V377.854H593.977V374.853ZM618.475 376.194V368.364H622.257V382H618.626V379.523H618.484C618.176 380.322 617.664 380.964 616.948 381.45C616.238 381.935 615.371 382.178 614.347 382.178C613.435 382.178 612.633 381.97 611.941 381.556C611.249 381.142 610.707 380.553 610.316 379.789C609.932 379.026 609.736 378.112 609.73 377.046V368.364H613.512V376.371C613.518 377.176 613.734 377.813 614.16 378.28C614.587 378.748 615.158 378.982 615.874 378.982C616.33 378.982 616.756 378.878 617.152 378.671C617.549 378.458 617.868 378.144 618.111 377.73C618.36 377.315 618.481 376.804 618.475 376.194ZM632.535 368.364V371.205H624.323V368.364H632.535ZM626.188 365.097H629.97V377.81C629.97 378.159 630.023 378.431 630.129 378.626C630.236 378.816 630.384 378.949 630.573 379.026C630.769 379.103 630.994 379.141 631.248 379.141C631.426 379.141 631.603 379.127 631.781 379.097C631.958 379.061 632.094 379.035 632.189 379.017L632.784 381.831C632.595 381.891 632.328 381.959 631.985 382.036C631.642 382.118 631.224 382.169 630.733 382.186C629.822 382.222 629.023 382.101 628.336 381.822C627.656 381.544 627.126 381.112 626.747 380.526C626.368 379.94 626.182 379.201 626.188 378.307V365.097ZM641.014 382.266C639.635 382.266 638.442 381.973 637.436 381.387C636.436 380.796 635.663 379.973 635.119 378.919C634.574 377.86 634.302 376.632 634.302 375.235C634.302 373.826 634.574 372.595 635.119 371.542C635.663 370.482 636.436 369.66 637.436 369.074C638.442 368.482 639.635 368.186 641.014 368.186C642.393 368.186 643.582 368.482 644.583 369.074C645.589 369.66 646.364 370.482 646.909 371.542C647.453 372.595 647.725 373.826 647.725 375.235C647.725 376.632 647.453 377.86 646.909 378.919C646.364 379.973 645.589 380.796 644.583 381.387C643.582 381.973 642.393 382.266 641.014 382.266ZM641.031 379.337C641.659 379.337 642.183 379.159 642.603 378.804C643.023 378.443 643.34 377.952 643.553 377.33C643.772 376.709 643.881 376.002 643.881 375.208C643.881 374.415 643.772 373.708 643.553 373.087C643.34 372.465 643.023 371.974 642.603 371.613C642.183 371.252 641.659 371.071 641.031 371.071C640.398 371.071 639.866 371.252 639.433 371.613C639.007 371.974 638.685 372.465 638.466 373.087C638.253 373.708 638.146 374.415 638.146 375.208C638.146 376.002 638.253 376.709 638.466 377.33C638.685 377.952 639.007 378.443 639.433 378.804C639.866 379.159 640.398 379.337 641.031 379.337ZM672.084 370.184H668.195C668.124 369.681 667.979 369.234 667.76 368.843C667.541 368.446 667.26 368.109 666.917 367.831C666.574 367.553 666.177 367.34 665.727 367.192C665.284 367.044 664.801 366.97 664.28 366.97C663.339 366.97 662.52 367.204 661.821 367.671C661.123 368.133 660.581 368.808 660.197 369.695C659.812 370.577 659.619 371.648 659.619 372.909C659.619 374.205 659.812 375.294 660.197 376.176C660.587 377.058 661.132 377.724 661.83 378.174C662.528 378.623 663.336 378.848 664.254 378.848C664.769 378.848 665.245 378.78 665.683 378.644C666.127 378.508 666.52 378.31 666.864 378.049C667.207 377.783 667.491 377.46 667.716 377.082C667.947 376.703 668.107 376.271 668.195 375.786L672.084 375.803C671.983 376.638 671.732 377.443 671.329 378.218C670.933 378.987 670.397 379.677 669.722 380.287C669.054 380.89 668.255 381.37 667.325 381.725C666.402 382.074 665.357 382.249 664.192 382.249C662.57 382.249 661.12 381.882 659.841 381.148C658.569 380.414 657.563 379.351 656.823 377.961C656.089 376.57 655.722 374.886 655.722 372.909C655.722 370.926 656.095 369.24 656.841 367.849C657.586 366.458 658.598 365.398 659.877 364.67C661.155 363.937 662.594 363.57 664.192 363.57C665.245 363.57 666.222 363.718 667.121 364.013C668.027 364.309 668.829 364.741 669.527 365.31C670.226 365.872 670.794 366.561 671.232 367.378C671.676 368.195 671.96 369.13 672.084 370.184ZM680.931 382.266C679.552 382.266 678.359 381.973 677.353 381.387C676.353 380.796 675.58 379.973 675.036 378.919C674.491 377.86 674.219 376.632 674.219 375.235C674.219 373.826 674.491 372.595 675.036 371.542C675.58 370.482 676.353 369.66 677.353 369.074C678.359 368.482 679.552 368.186 680.931 368.186C682.31 368.186 683.499 368.482 684.5 369.074C685.506 369.66 686.281 370.482 686.826 371.542C687.37 372.595 687.642 373.826 687.642 375.235C687.642 376.632 687.37 377.86 686.826 378.919C686.281 379.973 685.506 380.796 684.5 381.387C683.499 381.973 682.31 382.266 680.931 382.266ZM680.948 379.337C681.576 379.337 682.1 379.159 682.52 378.804C682.94 378.443 683.257 377.952 683.47 377.33C683.689 376.709 683.798 376.002 683.798 375.208C683.798 374.415 683.689 373.708 683.47 373.087C683.257 372.465 682.94 371.974 682.52 371.613C682.1 371.252 681.576 371.071 680.948 371.071C680.315 371.071 679.783 371.252 679.35 371.613C678.924 371.974 678.602 372.465 678.383 373.087C678.17 373.708 678.063 374.415 678.063 375.208C678.063 376.002 678.17 376.709 678.383 377.33C678.602 377.952 678.924 378.443 679.35 378.804C679.783 379.159 680.315 379.337 680.948 379.337ZM690.102 382V368.364H693.706V370.77H693.866C694.15 369.971 694.623 369.34 695.286 368.879C695.949 368.417 696.742 368.186 697.665 368.186C698.601 368.186 699.397 368.42 700.054 368.887C700.711 369.349 701.149 369.976 701.367 370.77H701.51C701.788 369.988 702.291 369.364 703.019 368.896C703.753 368.423 704.62 368.186 705.62 368.186C706.892 368.186 707.925 368.592 708.718 369.402C709.517 370.207 709.917 371.35 709.917 372.829V382H706.144V373.575C706.144 372.817 705.943 372.249 705.54 371.87C705.138 371.492 704.635 371.302 704.031 371.302C703.344 371.302 702.809 371.521 702.424 371.959C702.039 372.391 701.847 372.962 701.847 373.673V382H698.18V373.495C698.18 372.826 697.988 372.294 697.603 371.897C697.225 371.5 696.724 371.302 696.103 371.302C695.683 371.302 695.304 371.409 694.967 371.622C694.635 371.829 694.372 372.122 694.176 372.501C693.981 372.874 693.883 373.312 693.883 373.815V382H690.102ZM712.904 387.114V368.364H716.633V370.654H716.802C716.967 370.287 717.207 369.914 717.521 369.536C717.84 369.151 718.255 368.831 718.764 368.577C719.279 368.316 719.918 368.186 720.681 368.186C721.676 368.186 722.593 368.446 723.433 368.967C724.274 369.482 724.946 370.261 725.449 371.302C725.952 372.338 726.203 373.637 726.203 375.2C726.203 376.721 725.958 378.005 725.466 379.053C724.981 380.094 724.318 380.884 723.478 381.423C722.643 381.956 721.708 382.222 720.672 382.222C719.938 382.222 719.314 382.101 718.799 381.858C718.29 381.615 717.873 381.31 717.547 380.944C717.222 380.571 716.973 380.195 716.802 379.816H716.686V387.114H712.904ZM716.606 375.182C716.606 375.993 716.719 376.7 716.944 377.304C717.169 377.907 717.494 378.378 717.92 378.715C718.346 379.047 718.864 379.212 719.474 379.212C720.089 379.212 720.61 379.044 721.036 378.706C721.462 378.363 721.785 377.89 722.004 377.286C722.229 376.676 722.341 375.975 722.341 375.182C722.341 374.395 722.232 373.702 722.013 373.104C721.794 372.507 721.471 372.039 721.045 371.702C720.619 371.364 720.095 371.196 719.474 371.196C718.858 371.196 718.337 371.358 717.911 371.684C717.491 372.009 717.169 372.471 716.944 373.069C716.719 373.667 716.606 374.371 716.606 375.182ZM732.507 363.818V382H728.725V363.818H732.507ZM741.751 382.266C740.348 382.266 739.14 381.982 738.128 381.414C737.122 380.84 736.347 380.029 735.802 378.982C735.258 377.928 734.986 376.682 734.986 375.244C734.986 373.841 735.258 372.61 735.802 371.551C736.347 370.491 737.113 369.666 738.102 369.074C739.096 368.482 740.262 368.186 741.6 368.186C742.499 368.186 743.337 368.331 744.112 368.621C744.893 368.905 745.574 369.334 746.154 369.908C746.74 370.482 747.196 371.205 747.521 372.075C747.847 372.939 748.009 373.951 748.009 375.111V376.15H736.495V373.806H744.449C744.449 373.261 744.331 372.779 744.094 372.359C743.858 371.938 743.529 371.61 743.109 371.373C742.695 371.131 742.212 371.009 741.662 371.009C741.088 371.009 740.579 371.142 740.135 371.409C739.697 371.669 739.354 372.021 739.105 372.465C738.856 372.903 738.729 373.391 738.723 373.93V376.158C738.723 376.833 738.848 377.416 739.096 377.907C739.351 378.399 739.709 378.777 740.17 379.044C740.632 379.31 741.179 379.443 741.813 379.443C742.233 379.443 742.618 379.384 742.967 379.266C743.316 379.147 743.615 378.97 743.864 378.733C744.112 378.496 744.301 378.206 744.432 377.863L747.93 378.094C747.752 378.934 747.388 379.668 746.838 380.295C746.293 380.917 745.589 381.402 744.725 381.751C743.866 382.095 742.875 382.266 741.751 382.266ZM757.731 368.364V371.205H749.519V368.364H757.731ZM751.383 365.097H755.165V377.81C755.165 378.159 755.218 378.431 755.325 378.626C755.431 378.816 755.579 378.949 755.769 379.026C755.964 379.103 756.189 379.141 756.443 379.141C756.621 379.141 756.799 379.127 756.976 379.097C757.154 379.061 757.29 379.035 757.384 379.017L757.979 381.831C757.79 381.891 757.524 381.959 757.18 382.036C756.837 382.118 756.42 382.169 755.928 382.186C755.017 382.222 754.218 382.101 753.531 381.822C752.851 381.544 752.321 381.112 751.942 380.526C751.564 379.94 751.377 379.201 751.383 378.307V365.097ZM766.262 382.266C764.86 382.266 763.652 381.982 762.64 381.414C761.634 380.84 760.859 380.029 760.314 378.982C759.77 377.928 759.497 376.682 759.497 375.244C759.497 373.841 759.77 372.61 760.314 371.551C760.859 370.491 761.625 369.666 762.614 369.074C763.608 368.482 764.774 368.186 766.111 368.186C767.011 368.186 767.848 368.331 768.624 368.621C769.405 368.905 770.086 369.334 770.666 369.908C771.252 370.482 771.707 371.205 772.033 372.075C772.358 372.939 772.521 373.951 772.521 375.111V376.15H761.007V373.806H768.961C768.961 373.261 768.843 372.779 768.606 372.359C768.369 371.938 768.041 371.61 767.621 371.373C767.206 371.131 766.724 371.009 766.174 371.009C765.599 371.009 765.09 371.142 764.647 371.409C764.209 371.669 763.865 372.021 763.617 372.465C763.368 372.903 763.241 373.391 763.235 373.93V376.158C763.235 376.833 763.359 377.416 763.608 377.907C763.862 378.399 764.22 378.777 764.682 379.044C765.144 379.31 765.691 379.443 766.324 379.443C766.745 379.443 767.129 379.384 767.479 379.266C767.828 379.147 768.127 378.97 768.375 378.733C768.624 378.496 768.813 378.206 768.943 377.863L772.441 378.094C772.264 378.934 771.9 379.668 771.349 380.295C770.805 380.917 770.1 381.402 769.236 381.751C768.378 382.095 767.387 382.266 766.262 382.266Z" fill="white"/>
<rect x="885" y="274" width="289" height="155" rx="20" fill="#2E4B99"/>
<rect x="1233" y="274" width="289" height="155" rx="20" fill="#2E4B99"/>
<path d="M1018.59 349.184H1014.71C1014.64 348.681 1014.49 348.234 1014.27 347.843C1014.05 347.446 1013.77 347.109 1013.43 346.831C1013.08 346.553 1012.69 346.34 1012.24 346.192C1011.79 346.044 1011.31 345.97 1010.79 345.97C1009.85 345.97 1009.03 346.204 1008.33 346.671C1007.63 347.133 1007.09 347.808 1006.71 348.695C1006.32 349.577 1006.13 350.648 1006.13 351.909C1006.13 353.205 1006.32 354.294 1006.71 355.176C1007.1 356.058 1007.64 356.724 1008.34 357.174C1009.04 357.623 1009.85 357.848 1010.76 357.848C1011.28 357.848 1011.76 357.78 1012.19 357.644C1012.64 357.508 1013.03 357.31 1013.37 357.049C1013.72 356.783 1014 356.46 1014.23 356.082C1014.46 355.703 1014.62 355.271 1014.71 354.786L1018.59 354.803C1018.49 355.638 1018.24 356.443 1017.84 357.218C1017.44 357.987 1016.91 358.677 1016.23 359.287C1015.56 359.89 1014.77 360.37 1013.84 360.725C1012.91 361.074 1011.87 361.249 1010.7 361.249C1009.08 361.249 1007.63 360.882 1006.35 360.148C1005.08 359.414 1004.07 358.351 1003.33 356.961C1002.6 355.57 1002.23 353.886 1002.23 351.909C1002.23 349.926 1002.61 348.24 1003.35 346.849C1004.1 345.458 1005.11 344.398 1006.39 343.67C1007.67 342.937 1009.1 342.57 1010.7 342.57C1011.76 342.57 1012.73 342.718 1013.63 343.013C1014.54 343.309 1015.34 343.741 1016.04 344.31C1016.74 344.872 1017.3 345.561 1017.74 346.378C1018.19 347.195 1018.47 348.13 1018.59 349.184ZM1025.06 342.818V361H1021.28V342.818H1025.06ZM1036.84 355.194V347.364H1040.62V361H1036.99V358.523H1036.85C1036.54 359.322 1036.03 359.964 1035.31 360.45C1034.6 360.935 1033.73 361.178 1032.71 361.178C1031.8 361.178 1030.99 360.97 1030.3 360.556C1029.61 360.142 1029.07 359.553 1028.68 358.789C1028.29 358.026 1028.1 357.112 1028.09 356.046V347.364H1031.87V355.371C1031.88 356.176 1032.1 356.813 1032.52 357.28C1032.95 357.748 1033.52 357.982 1034.24 357.982C1034.69 357.982 1035.12 357.878 1035.51 357.671C1035.91 357.458 1036.23 357.144 1036.47 356.73C1036.72 356.315 1036.84 355.804 1036.84 355.194ZM1043.71 361V342.818H1047.5V349.654H1047.61C1047.78 349.287 1048.02 348.914 1048.33 348.536C1048.65 348.151 1049.06 347.831 1049.57 347.577C1050.09 347.316 1050.73 347.186 1051.49 347.186C1052.49 347.186 1053.4 347.446 1054.24 347.967C1055.08 348.482 1055.76 349.261 1056.26 350.302C1056.76 351.338 1057.01 352.637 1057.01 354.2C1057.01 355.721 1056.77 357.005 1056.28 358.053C1055.79 359.094 1055.13 359.884 1054.29 360.423C1053.45 360.956 1052.52 361.222 1051.48 361.222C1050.75 361.222 1050.12 361.101 1049.61 360.858C1049.1 360.615 1048.68 360.31 1048.36 359.944C1048.03 359.571 1047.78 359.195 1047.61 358.816H1047.44V361H1043.71ZM1047.42 354.182C1047.42 354.993 1047.53 355.7 1047.75 356.304C1047.98 356.907 1048.3 357.378 1048.73 357.715C1049.16 358.047 1049.67 358.212 1050.28 358.212C1050.9 358.212 1051.42 358.044 1051.85 357.706C1052.27 357.363 1052.6 356.89 1052.81 356.286C1053.04 355.676 1053.15 354.975 1053.15 354.182C1053.15 353.395 1053.04 352.702 1052.82 352.104C1052.6 351.507 1052.28 351.039 1051.86 350.702C1051.43 350.364 1050.91 350.196 1050.28 350.196C1049.67 350.196 1049.15 350.358 1048.72 350.684C1048.3 351.009 1047.98 351.471 1047.75 352.069C1047.53 352.667 1047.42 353.371 1047.42 354.182Z" fill="white"/>
<path d="M1301.12 349.184H1297.23C1297.16 348.681 1297.01 348.234 1296.79 347.843C1296.57 347.446 1296.29 347.109 1295.95 346.831C1295.61 346.553 1295.21 346.34 1294.76 346.192C1294.32 346.044 1293.83 345.97 1293.31 345.97C1292.37 345.97 1291.55 346.204 1290.85 346.671C1290.15 347.133 1289.61 347.808 1289.23 348.695C1288.84 349.577 1288.65 350.648 1288.65 351.909C1288.65 353.205 1288.84 354.294 1289.23 355.176C1289.62 356.058 1290.16 356.724 1290.86 357.174C1291.56 357.623 1292.37 357.848 1293.29 357.848C1293.8 357.848 1294.28 357.78 1294.72 357.644C1295.16 357.508 1295.55 357.31 1295.9 357.049C1296.24 356.783 1296.52 356.46 1296.75 356.082C1296.98 355.703 1297.14 355.271 1297.23 354.786L1301.12 354.803C1301.02 355.638 1300.76 356.443 1300.36 357.218C1299.97 357.987 1299.43 358.677 1298.75 359.287C1298.09 359.89 1297.29 360.37 1296.36 360.725C1295.43 361.074 1294.39 361.249 1293.22 361.249C1291.6 361.249 1290.15 360.882 1288.87 360.148C1287.6 359.414 1286.59 358.351 1285.86 356.961C1285.12 355.57 1284.75 353.886 1284.75 351.909C1284.75 349.926 1285.13 348.24 1285.87 346.849C1286.62 345.458 1287.63 344.398 1288.91 343.67C1290.19 342.937 1291.63 342.57 1293.22 342.57C1294.28 342.57 1295.25 342.718 1296.15 343.013C1297.06 343.309 1297.86 343.741 1298.56 344.31C1299.26 344.872 1299.83 345.561 1300.26 346.378C1300.71 347.195 1300.99 348.13 1301.12 349.184ZM1307.58 342.818V361H1303.8V342.818H1307.58ZM1319.36 355.194V347.364H1323.14V361H1319.51V358.523H1319.37C1319.06 359.322 1318.55 359.964 1317.83 360.45C1317.12 360.935 1316.25 361.178 1315.23 361.178C1314.32 361.178 1313.52 360.97 1312.82 360.556C1312.13 360.142 1311.59 359.553 1311.2 358.789C1310.81 358.026 1310.62 357.112 1310.61 356.046V347.364H1314.4V355.371C1314.4 356.176 1314.62 356.813 1315.04 357.28C1315.47 357.748 1316.04 357.982 1316.76 357.982C1317.21 357.982 1317.64 357.878 1318.04 357.671C1318.43 357.458 1318.75 357.144 1318.99 356.73C1319.24 356.315 1319.36 355.804 1319.36 355.194ZM1326.24 361V342.818H1330.02V349.654H1330.13C1330.3 349.287 1330.54 348.914 1330.85 348.536C1331.17 348.151 1331.59 347.831 1332.1 347.577C1332.61 347.316 1333.25 347.186 1334.01 347.186C1335.01 347.186 1335.92 347.446 1336.77 347.967C1337.61 348.482 1338.28 349.261 1338.78 350.302C1339.28 351.338 1339.54 352.637 1339.54 354.2C1339.54 355.721 1339.29 357.005 1338.8 358.053C1338.31 359.094 1337.65 359.884 1336.81 360.423C1335.98 360.956 1335.04 361.222 1334 361.222C1333.27 361.222 1332.65 361.101 1332.13 360.858C1331.62 360.615 1331.2 360.31 1330.88 359.944C1330.55 359.571 1330.31 359.195 1330.13 358.816H1329.96V361H1326.24ZM1329.94 354.182C1329.94 354.993 1330.05 355.7 1330.28 356.304C1330.5 356.907 1330.83 357.378 1331.25 357.715C1331.68 358.047 1332.2 358.212 1332.81 358.212C1333.42 358.212 1333.94 358.044 1334.37 357.706C1334.79 357.363 1335.12 356.89 1335.34 356.286C1335.56 355.676 1335.67 354.975 1335.67 354.182C1335.67 353.395 1335.56 352.702 1335.34 352.104C1335.13 351.507 1334.8 351.039 1334.38 350.702C1333.95 350.364 1333.43 350.196 1332.81 350.196C1332.19 350.196 1331.67 350.358 1331.24 350.684C1330.82 351.009 1330.5 351.471 1330.28 352.069C1330.05 352.667 1329.94 353.371 1329.94 354.182ZM1363.12 342.818V361H1359.8L1351.89 349.556H1351.76V361H1347.92V342.818H1351.29L1359.14 354.253H1359.3V342.818H1363.12ZM1372.39 361.266C1371.01 361.266 1369.82 360.973 1368.81 360.387C1367.81 359.796 1367.04 358.973 1366.49 357.919C1365.95 356.86 1365.68 355.632 1365.68 354.235C1365.68 352.826 1365.95 351.595 1366.49 350.542C1367.04 349.482 1367.81 348.66 1368.81 348.074C1369.82 347.482 1371.01 347.186 1372.39 347.186C1373.77 347.186 1374.96 347.482 1375.96 348.074C1376.96 348.66 1377.74 349.482 1378.28 350.542C1378.83 351.595 1379.1 352.826 1379.1 354.235C1379.1 355.632 1378.83 356.86 1378.28 357.919C1377.74 358.973 1376.96 359.796 1375.96 360.387C1374.96 360.973 1373.77 361.266 1372.39 361.266ZM1372.41 358.337C1373.03 358.337 1373.56 358.159 1373.98 357.804C1374.4 357.443 1374.72 356.952 1374.93 356.33C1375.15 355.709 1375.26 355.002 1375.26 354.208C1375.26 353.415 1375.15 352.708 1374.93 352.087C1374.72 351.465 1374.4 350.974 1373.98 350.613C1373.56 350.252 1373.03 350.071 1372.41 350.071C1371.77 350.071 1371.24 350.252 1370.81 350.613C1370.38 350.974 1370.06 351.465 1369.84 352.087C1369.63 352.708 1369.52 353.415 1369.52 354.208C1369.52 355.002 1369.63 355.709 1369.84 356.33C1370.06 356.952 1370.38 357.443 1370.81 357.804C1371.24 358.159 1371.77 358.337 1372.41 358.337ZM1388.81 347.364V350.205H1380.6V347.364H1388.81ZM1382.47 344.097H1386.25V356.81C1386.25 357.159 1386.3 357.431 1386.41 357.626C1386.51 357.816 1386.66 357.949 1386.85 358.026C1387.05 358.103 1387.27 358.141 1387.53 358.141C1387.7 358.141 1387.88 358.127 1388.06 358.097C1388.24 358.061 1388.37 358.035 1388.47 358.017L1389.06 360.831C1388.87 360.891 1388.61 360.959 1388.26 361.036C1387.92 361.118 1387.5 361.169 1387.01 361.186C1386.1 361.222 1385.3 361.101 1384.61 360.822C1383.93 360.544 1383.4 360.112 1383.03 359.526C1382.65 358.94 1382.46 358.201 1382.47 357.307V344.097ZM1397.13 361V342.818H1409.17V345.988H1400.98V350.32H1408.37V353.489H1400.98V361H1397.13ZM1416.85 361.266C1415.47 361.266 1414.28 360.973 1413.27 360.387C1412.27 359.796 1411.5 358.973 1410.95 357.919C1410.41 356.86 1410.14 355.632 1410.14 354.235C1410.14 352.826 1410.41 351.595 1410.95 350.542C1411.5 349.482 1412.27 348.66 1413.27 348.074C1414.28 347.482 1415.47 347.186 1416.85 347.186C1418.23 347.186 1419.42 347.482 1420.42 348.074C1421.42 348.66 1422.2 349.482 1422.74 350.542C1423.29 351.595 1423.56 352.826 1423.56 354.235C1423.56 355.632 1423.29 356.86 1422.74 357.919C1422.2 358.973 1421.42 359.796 1420.42 360.387C1419.42 360.973 1418.23 361.266 1416.85 361.266ZM1416.87 358.337C1417.49 358.337 1418.02 358.159 1418.44 357.804C1418.86 357.443 1419.17 356.952 1419.39 356.33C1419.61 355.709 1419.72 355.002 1419.72 354.208C1419.72 353.415 1419.61 352.708 1419.39 352.087C1419.17 351.465 1418.86 350.974 1418.44 350.613C1418.02 350.252 1417.49 350.071 1416.87 350.071C1416.23 350.071 1415.7 350.252 1415.27 350.613C1414.84 350.974 1414.52 351.465 1414.3 352.087C1414.09 352.708 1413.98 353.415 1413.98 354.208C1413.98 355.002 1414.09 355.709 1414.3 356.33C1414.52 356.952 1414.84 357.443 1415.27 357.804C1415.7 358.159 1416.23 358.337 1416.87 358.337ZM1434.76 355.194V347.364H1438.55V361H1434.91V358.523H1434.77C1434.46 359.322 1433.95 359.964 1433.24 360.45C1432.53 360.935 1431.66 361.178 1430.63 361.178C1429.72 361.178 1428.92 360.97 1428.23 360.556C1427.54 360.142 1427 359.553 1426.6 358.789C1426.22 358.026 1426.02 357.112 1426.02 356.046V347.364H1429.8V355.371C1429.81 356.176 1430.02 356.813 1430.45 357.28C1430.87 357.748 1431.45 357.982 1432.16 357.982C1432.62 357.982 1433.04 357.878 1433.44 357.671C1433.84 357.458 1434.16 357.144 1434.4 356.73C1434.65 356.315 1434.77 355.804 1434.76 355.194ZM1445.35 353.116V361H1441.57V347.364H1445.17V349.77H1445.33C1445.64 348.976 1446.14 348.349 1446.85 347.887C1447.56 347.42 1448.42 347.186 1449.44 347.186C1450.38 347.186 1451.21 347.393 1451.91 347.808C1452.62 348.222 1453.16 348.814 1453.56 349.583C1453.95 350.347 1454.14 351.258 1454.14 352.317V361H1450.36V352.992C1450.37 352.158 1450.15 351.507 1449.72 351.039C1449.29 350.566 1448.69 350.329 1447.94 350.329C1447.43 350.329 1446.98 350.438 1446.59 350.657C1446.2 350.876 1445.9 351.196 1445.68 351.616C1445.47 352.03 1445.36 352.531 1445.35 353.116ZM1462.15 361.222C1461.11 361.222 1460.17 360.956 1459.33 360.423C1458.5 359.884 1457.84 359.094 1457.34 358.053C1456.86 357.005 1456.62 355.721 1456.62 354.2C1456.62 352.637 1456.87 351.338 1457.37 350.302C1457.87 349.261 1458.54 348.482 1459.38 347.967C1460.22 347.446 1461.14 347.186 1462.14 347.186C1462.9 347.186 1463.54 347.316 1464.05 347.577C1464.56 347.831 1464.98 348.151 1465.29 348.536C1465.61 348.914 1465.85 349.287 1466.02 349.654H1466.13V342.818H1469.91V361H1466.18V358.816H1466.02C1465.84 359.195 1465.59 359.571 1465.26 359.944C1464.94 360.31 1464.53 360.615 1464.01 360.858C1463.5 361.101 1462.88 361.222 1462.15 361.222ZM1463.35 358.212C1463.96 358.212 1464.47 358.047 1464.89 357.715C1465.32 357.378 1465.64 356.907 1465.87 356.304C1466.1 355.7 1466.21 354.993 1466.21 354.182C1466.21 353.371 1466.1 352.667 1465.88 352.069C1465.65 351.471 1465.33 351.009 1464.9 350.684C1464.47 350.358 1463.96 350.196 1463.35 350.196C1462.72 350.196 1462.2 350.364 1461.77 350.702C1461.35 351.039 1461.03 351.507 1460.81 352.104C1460.59 352.702 1460.48 353.395 1460.48 354.182C1460.48 354.975 1460.59 355.676 1460.81 356.286C1461.03 356.89 1461.35 357.363 1461.77 357.706C1462.2 358.044 1462.72 358.212 1463.35 358.212Z" fill="white"/>
<rect x="1575" y="69" width="289" height="155" rx="20" fill="#2E4B99"/>
<path d="M1598.23 122.818V141H1594.38V122.818H1598.23ZM1605.1 133.116V141H1601.32V127.364H1604.92V129.77H1605.08C1605.39 128.976 1605.89 128.349 1606.6 127.887C1607.31 127.42 1608.17 127.186 1609.19 127.186C1610.13 127.186 1610.96 127.393 1611.66 127.808C1612.37 128.222 1612.91 128.814 1613.3 129.583C1613.7 130.347 1613.89 131.258 1613.89 132.317V141H1610.11V132.992C1610.11 132.158 1609.9 131.507 1609.47 131.039C1609.04 130.566 1608.44 130.329 1607.68 130.329C1607.18 130.329 1606.73 130.438 1606.34 130.657C1605.95 130.876 1605.65 131.196 1605.43 131.616C1605.22 132.03 1605.11 132.531 1605.1 133.116ZM1616.87 146.114V127.364H1620.6V129.654H1620.77C1620.93 129.287 1621.17 128.914 1621.49 128.536C1621.81 128.151 1622.22 127.831 1622.73 127.577C1623.25 127.316 1623.88 127.186 1624.65 127.186C1625.64 127.186 1626.56 127.446 1627.4 127.967C1628.24 128.482 1628.91 129.261 1629.42 130.302C1629.92 131.338 1630.17 132.637 1630.17 134.2C1630.17 135.721 1629.92 137.005 1629.43 138.053C1628.95 139.094 1628.28 139.884 1627.44 140.423C1626.61 140.956 1625.67 141.222 1624.64 141.222C1623.91 141.222 1623.28 141.101 1622.77 140.858C1622.26 140.615 1621.84 140.31 1621.51 139.944C1621.19 139.571 1620.94 139.195 1620.77 138.816H1620.65V146.114H1616.87ZM1620.57 134.182C1620.57 134.993 1620.69 135.7 1620.91 136.304C1621.14 136.907 1621.46 137.378 1621.89 137.715C1622.31 138.047 1622.83 138.212 1623.44 138.212C1624.06 138.212 1624.58 138.044 1625 137.706C1625.43 137.363 1625.75 136.89 1625.97 136.286C1626.2 135.676 1626.31 134.975 1626.31 134.182C1626.31 133.395 1626.2 132.702 1625.98 132.104C1625.76 131.507 1625.44 131.039 1625.01 130.702C1624.59 130.364 1624.06 130.196 1623.44 130.196C1622.83 130.196 1622.3 130.358 1621.88 130.684C1621.46 131.009 1621.14 131.471 1620.91 132.069C1620.69 132.667 1620.57 133.371 1620.57 134.182ZM1641.44 135.194V127.364H1645.22V141H1641.59V138.523H1641.44C1641.14 139.322 1640.63 139.964 1639.91 140.45C1639.2 140.935 1638.33 141.178 1637.31 141.178C1636.4 141.178 1635.59 140.97 1634.9 140.556C1634.21 140.142 1633.67 139.553 1633.28 138.789C1632.89 138.026 1632.7 137.112 1632.69 136.046V127.364H1636.47V135.371C1636.48 136.176 1636.7 136.813 1637.12 137.28C1637.55 137.748 1638.12 137.982 1638.83 137.982C1639.29 137.982 1639.72 137.878 1640.11 137.671C1640.51 137.458 1640.83 137.144 1641.07 136.73C1641.32 136.315 1641.44 135.804 1641.44 135.194ZM1655.5 127.364V130.205H1647.28V127.364H1655.5ZM1649.15 124.097H1652.93V136.81C1652.93 137.159 1652.98 137.431 1653.09 137.626C1653.2 137.816 1653.34 137.949 1653.53 138.026C1653.73 138.103 1653.95 138.141 1654.21 138.141C1654.39 138.141 1654.56 138.127 1654.74 138.097C1654.92 138.061 1655.06 138.035 1655.15 138.017L1655.74 140.831C1655.56 140.891 1655.29 140.959 1654.95 141.036C1654.6 141.118 1654.19 141.169 1653.69 141.186C1652.78 141.222 1651.98 141.101 1651.3 140.822C1650.62 140.544 1650.09 140.112 1649.71 139.526C1649.33 138.94 1649.14 138.201 1649.15 137.307V124.097ZM1666.95 141H1662.83L1669.11 122.818H1674.06L1680.33 141H1676.21L1671.66 126.973H1671.51L1666.95 141ZM1666.69 133.853H1676.42V136.854H1666.69V133.853ZM1691.19 135.194V127.364H1694.97V141H1691.34V138.523H1691.2C1690.89 139.322 1690.38 139.964 1689.66 140.45C1688.95 140.935 1688.09 141.178 1687.06 141.178C1686.15 141.178 1685.35 140.97 1684.66 140.556C1683.97 140.142 1683.42 139.553 1683.03 138.789C1682.65 138.026 1682.45 137.112 1682.45 136.046V127.364H1686.23V135.371C1686.24 136.176 1686.45 136.813 1686.88 137.28C1687.3 137.748 1687.87 137.982 1688.59 137.982C1689.05 137.982 1689.47 137.878 1689.87 137.671C1690.27 137.458 1690.59 137.144 1690.83 136.73C1691.08 136.315 1691.2 135.804 1691.19 135.194ZM1705.25 127.364V130.205H1697.04V127.364H1705.25ZM1698.9 124.097H1702.69V136.81C1702.69 137.159 1702.74 137.431 1702.85 137.626C1702.95 137.816 1703.1 137.949 1703.29 138.026C1703.49 138.103 1703.71 138.141 1703.96 138.141C1704.14 138.141 1704.32 138.127 1704.5 138.097C1704.68 138.061 1704.81 138.035 1704.91 138.017L1705.5 140.831C1705.31 140.891 1705.05 140.959 1704.7 141.036C1704.36 141.118 1703.94 141.169 1703.45 141.186C1702.54 141.222 1701.74 141.101 1701.05 140.822C1700.37 140.544 1699.84 140.112 1699.46 139.526C1699.09 138.94 1698.9 138.201 1698.9 137.307V124.097ZM1713.73 141.266C1712.35 141.266 1711.16 140.973 1710.15 140.387C1709.15 139.796 1708.38 138.973 1707.84 137.919C1707.29 136.86 1707.02 135.632 1707.02 134.235C1707.02 132.826 1707.29 131.595 1707.84 130.542C1708.38 129.482 1709.15 128.66 1710.15 128.074C1711.16 127.482 1712.35 127.186 1713.73 127.186C1715.11 127.186 1716.3 127.482 1717.3 128.074C1718.31 128.66 1719.08 129.482 1719.63 130.542C1720.17 131.595 1720.44 132.826 1720.44 134.235C1720.44 135.632 1720.17 136.86 1719.63 137.919C1719.08 138.973 1718.31 139.796 1717.3 140.387C1716.3 140.973 1715.11 141.266 1713.73 141.266ZM1713.75 138.337C1714.38 138.337 1714.9 138.159 1715.32 137.804C1715.74 137.443 1716.06 136.952 1716.27 136.33C1716.49 135.709 1716.6 135.002 1716.6 134.208C1716.6 133.415 1716.49 132.708 1716.27 132.087C1716.06 131.465 1715.74 130.974 1715.32 130.613C1714.9 130.252 1714.38 130.071 1713.75 130.071C1713.11 130.071 1712.58 130.252 1712.15 130.613C1711.72 130.974 1711.4 131.465 1711.18 132.087C1710.97 132.708 1710.86 133.415 1710.86 134.208C1710.86 135.002 1710.97 135.709 1711.18 136.33C1711.4 136.952 1711.72 137.443 1712.15 137.804C1712.58 138.159 1713.11 138.337 1713.75 138.337ZM1744.8 129.184H1740.91C1740.84 128.681 1740.7 128.234 1740.48 127.843C1740.26 127.446 1739.98 127.109 1739.63 126.831C1739.29 126.553 1738.89 126.34 1738.44 126.192C1738 126.044 1737.52 125.97 1737 125.97C1736.06 125.97 1735.24 126.204 1734.54 126.671C1733.84 127.133 1733.3 127.808 1732.91 128.695C1732.53 129.577 1732.34 130.648 1732.34 131.909C1732.34 133.205 1732.53 134.294 1732.91 135.176C1733.3 136.058 1733.85 136.724 1734.55 137.174C1735.25 137.623 1736.05 137.848 1736.97 137.848C1737.49 137.848 1737.96 137.78 1738.4 137.644C1738.84 137.508 1739.24 137.31 1739.58 137.049C1739.92 136.783 1740.21 136.46 1740.43 136.082C1740.66 135.703 1740.82 135.271 1740.91 134.786L1744.8 134.803C1744.7 135.638 1744.45 136.443 1744.05 137.218C1743.65 137.987 1743.11 138.677 1742.44 139.287C1741.77 139.89 1740.97 140.37 1740.04 140.725C1739.12 141.074 1738.07 141.249 1736.91 141.249C1735.29 141.249 1733.84 140.882 1732.56 140.148C1731.29 139.414 1730.28 138.351 1729.54 136.961C1728.81 135.57 1728.44 133.886 1728.44 131.909C1728.44 129.926 1728.81 128.24 1729.56 126.849C1730.3 125.458 1731.32 124.398 1732.59 123.67C1733.87 122.937 1735.31 122.57 1736.91 122.57C1737.96 122.57 1738.94 122.718 1739.84 123.013C1740.74 123.309 1741.55 123.741 1742.24 124.31C1742.94 124.872 1743.51 125.561 1743.95 126.378C1744.39 127.195 1744.68 128.13 1744.8 129.184ZM1753.65 141.266C1752.27 141.266 1751.08 140.973 1750.07 140.387C1749.07 139.796 1748.3 138.973 1747.75 137.919C1747.21 136.86 1746.94 135.632 1746.94 134.235C1746.94 132.826 1747.21 131.595 1747.75 130.542C1748.3 129.482 1749.07 128.66 1750.07 128.074C1751.08 127.482 1752.27 127.186 1753.65 127.186C1755.03 127.186 1756.22 127.482 1757.22 128.074C1758.22 128.66 1759 129.482 1759.54 130.542C1760.09 131.595 1760.36 132.826 1760.36 134.235C1760.36 135.632 1760.09 136.86 1759.54 137.919C1759 138.973 1758.22 139.796 1757.22 140.387C1756.22 140.973 1755.03 141.266 1753.65 141.266ZM1753.67 138.337C1754.29 138.337 1754.82 138.159 1755.24 137.804C1755.66 137.443 1755.97 136.952 1756.19 136.33C1756.41 135.709 1756.52 135.002 1756.52 134.208C1756.52 133.415 1756.41 132.708 1756.19 132.087C1755.97 131.465 1755.66 130.974 1755.24 130.613C1754.82 130.252 1754.29 130.071 1753.67 130.071C1753.03 130.071 1752.5 130.252 1752.07 130.613C1751.64 130.974 1751.32 131.465 1751.1 132.087C1750.89 132.708 1750.78 133.415 1750.78 134.208C1750.78 135.002 1750.89 135.709 1751.1 136.33C1751.32 136.952 1751.64 137.443 1752.07 137.804C1752.5 138.159 1753.03 138.337 1753.67 138.337ZM1762.82 141V127.364H1766.42V129.77H1766.58C1766.87 128.971 1767.34 128.34 1768 127.879C1768.67 127.417 1769.46 127.186 1770.38 127.186C1771.32 127.186 1772.11 127.42 1772.77 127.887C1773.43 128.349 1773.87 128.976 1774.08 129.77H1774.23C1774.5 128.988 1775.01 128.364 1775.74 127.896C1776.47 127.423 1777.34 127.186 1778.34 127.186C1779.61 127.186 1780.64 127.592 1781.44 128.402C1782.23 129.207 1782.63 130.35 1782.63 131.829V141H1778.86V132.575C1778.86 131.817 1778.66 131.249 1778.26 130.87C1777.85 130.492 1777.35 130.302 1776.75 130.302C1776.06 130.302 1775.53 130.521 1775.14 130.959C1774.76 131.391 1774.56 131.962 1774.56 132.673V141H1770.9V132.495C1770.9 131.826 1770.7 131.294 1770.32 130.897C1769.94 130.5 1769.44 130.302 1768.82 130.302C1768.4 130.302 1768.02 130.409 1767.68 130.622C1767.35 130.829 1767.09 131.122 1766.89 131.501C1766.7 131.874 1766.6 132.312 1766.6 132.815V141H1762.82ZM1785.62 146.114V127.364H1789.35V129.654H1789.52C1789.68 129.287 1789.92 128.914 1790.24 128.536C1790.56 128.151 1790.97 127.831 1791.48 127.577C1792 127.316 1792.63 127.186 1793.4 127.186C1794.39 127.186 1795.31 127.446 1796.15 127.967C1796.99 128.482 1797.66 129.261 1798.17 130.302C1798.67 131.338 1798.92 132.637 1798.92 134.2C1798.92 135.721 1798.67 137.005 1798.18 138.053C1797.7 139.094 1797.03 139.884 1796.19 140.423C1795.36 140.956 1794.42 141.222 1793.39 141.222C1792.66 141.222 1792.03 141.101 1791.52 140.858C1791.01 140.615 1790.59 140.31 1790.26 139.944C1789.94 139.571 1789.69 139.195 1789.52 138.816H1789.4V146.114H1785.62ZM1789.32 134.182C1789.32 134.993 1789.44 135.7 1789.66 136.304C1789.89 136.907 1790.21 137.378 1790.64 137.715C1791.06 138.047 1791.58 138.212 1792.19 138.212C1792.81 138.212 1793.33 138.044 1793.75 137.706C1794.18 137.363 1794.5 136.89 1794.72 136.286C1794.95 135.676 1795.06 134.975 1795.06 134.182C1795.06 133.395 1794.95 132.702 1794.73 132.104C1794.51 131.507 1794.19 131.039 1793.76 130.702C1793.34 130.364 1792.81 130.196 1792.19 130.196C1791.58 130.196 1791.05 130.358 1790.63 130.684C1790.21 131.009 1789.89 131.471 1789.66 132.069C1789.44 132.667 1789.32 133.371 1789.32 134.182ZM1805.22 122.818V141H1801.44V122.818H1805.22ZM1814.47 141.266C1813.06 141.266 1811.86 140.982 1810.85 140.414C1809.84 139.84 1809.06 139.029 1808.52 137.982C1807.97 136.928 1807.7 135.682 1807.7 134.244C1807.7 132.841 1807.97 131.61 1808.52 130.551C1809.06 129.491 1809.83 128.666 1810.82 128.074C1811.81 127.482 1812.98 127.186 1814.32 127.186C1815.22 127.186 1816.05 127.331 1816.83 127.621C1817.61 127.905 1818.29 128.334 1818.87 128.908C1819.46 129.482 1819.91 130.205 1820.24 131.075C1820.56 131.939 1820.73 132.951 1820.73 134.111V135.15H1809.21V132.806H1817.17C1817.17 132.261 1817.05 131.779 1816.81 131.359C1816.57 130.938 1816.25 130.61 1815.83 130.373C1815.41 130.131 1814.93 130.009 1814.38 130.009C1813.8 130.009 1813.3 130.142 1812.85 130.409C1812.41 130.669 1812.07 131.021 1811.82 131.465C1811.57 131.903 1811.45 132.391 1811.44 132.93V135.158C1811.44 135.833 1811.56 136.416 1811.81 136.907C1812.07 137.399 1812.43 137.777 1812.89 138.044C1813.35 138.31 1813.9 138.443 1814.53 138.443C1814.95 138.443 1815.33 138.384 1815.68 138.266C1816.03 138.147 1816.33 137.97 1816.58 137.733C1816.83 137.496 1817.02 137.206 1817.15 136.863L1820.65 137.094C1820.47 137.934 1820.1 138.668 1819.55 139.295C1819.01 139.917 1818.31 140.402 1817.44 140.751C1816.58 141.095 1815.59 141.266 1814.47 141.266ZM1830.45 127.364V130.205H1822.24V127.364H1830.45ZM1824.1 124.097H1827.88V136.81C1827.88 137.159 1827.94 137.431 1828.04 137.626C1828.15 137.816 1828.3 137.949 1828.49 138.026C1828.68 138.103 1828.91 138.141 1829.16 138.141C1829.34 138.141 1829.52 138.127 1829.69 138.097C1829.87 138.061 1830.01 138.035 1830.1 138.017L1830.7 140.831C1830.51 140.891 1830.24 140.959 1829.9 141.036C1829.55 141.118 1829.14 141.169 1828.65 141.186C1827.73 141.222 1826.93 141.101 1826.25 140.822C1825.57 140.544 1825.04 140.112 1824.66 139.526C1824.28 138.94 1824.09 138.201 1824.1 137.307V124.097ZM1838.98 141.266C1837.58 141.266 1836.37 140.982 1835.36 140.414C1834.35 139.84 1833.58 139.029 1833.03 137.982C1832.49 136.928 1832.21 135.682 1832.21 134.244C1832.21 132.841 1832.49 131.61 1833.03 130.551C1833.58 129.491 1834.34 128.666 1835.33 128.074C1836.32 127.482 1837.49 127.186 1838.83 127.186C1839.73 127.186 1840.57 127.331 1841.34 127.621C1842.12 127.905 1842.8 128.334 1843.38 128.908C1843.97 129.482 1844.42 130.205 1844.75 131.075C1845.08 131.939 1845.24 132.951 1845.24 134.111V135.15H1833.72V132.806H1841.68C1841.68 132.261 1841.56 131.779 1841.32 131.359C1841.09 130.938 1840.76 130.61 1840.34 130.373C1839.92 130.131 1839.44 130.009 1838.89 130.009C1838.32 130.009 1837.81 130.142 1837.36 130.409C1836.93 130.669 1836.58 131.021 1836.33 131.465C1836.08 131.903 1835.96 132.391 1835.95 132.93V135.158C1835.95 135.833 1836.08 136.416 1836.32 136.907C1836.58 137.399 1836.94 137.777 1837.4 138.044C1837.86 138.31 1838.41 138.443 1839.04 138.443C1839.46 138.443 1839.85 138.384 1840.2 138.266C1840.54 138.147 1840.84 137.97 1841.09 137.733C1841.34 137.496 1841.53 137.206 1841.66 136.863L1845.16 137.094C1844.98 137.934 1844.62 138.668 1844.07 139.295C1843.52 139.917 1842.82 140.402 1841.95 140.751C1841.09 141.095 1840.1 141.266 1838.98 141.266ZM1674.19 171.266C1672.81 171.266 1671.62 170.973 1670.61 170.387C1669.61 169.796 1668.84 168.973 1668.3 167.919C1667.75 166.86 1667.48 165.632 1667.48 164.235C1667.48 162.826 1667.75 161.595 1668.3 160.542C1668.84 159.482 1669.61 158.66 1670.61 158.074C1671.62 157.482 1672.81 157.186 1674.19 157.186C1675.57 157.186 1676.76 157.482 1677.76 158.074C1678.77 158.66 1679.54 159.482 1680.09 160.542C1680.63 161.595 1680.9 162.826 1680.9 164.235C1680.9 165.632 1680.63 166.86 1680.09 167.919C1679.54 168.973 1678.77 169.796 1677.76 170.387C1676.76 170.973 1675.57 171.266 1674.19 171.266ZM1674.21 168.337C1674.84 168.337 1675.36 168.159 1675.78 167.804C1676.2 167.443 1676.52 166.952 1676.73 166.33C1676.95 165.709 1677.06 165.002 1677.06 164.208C1677.06 163.415 1676.95 162.708 1676.73 162.087C1676.52 161.465 1676.2 160.974 1675.78 160.613C1675.36 160.252 1674.84 160.071 1674.21 160.071C1673.58 160.071 1673.04 160.252 1672.61 160.613C1672.19 160.974 1671.86 161.465 1671.64 162.087C1671.43 162.708 1671.32 163.415 1671.32 164.208C1671.32 165.002 1671.43 165.709 1671.64 166.33C1671.86 166.952 1672.19 167.443 1672.61 167.804C1673.04 168.159 1673.58 168.337 1674.21 168.337ZM1683.36 171V157.364H1687.03V159.743H1687.17C1687.42 158.897 1687.84 158.257 1688.42 157.825C1689.01 157.387 1689.68 157.168 1690.45 157.168C1690.64 157.168 1690.84 157.18 1691.06 157.204C1691.28 157.228 1691.47 157.26 1691.64 157.301V160.657C1691.46 160.604 1691.21 160.557 1690.9 160.515C1690.59 160.474 1690.3 160.453 1690.04 160.453C1689.48 160.453 1688.99 160.574 1688.55 160.817C1688.12 161.054 1687.77 161.385 1687.52 161.811C1687.27 162.238 1687.14 162.729 1687.14 163.285V171H1683.36ZM1698.76 155.988V152.818H1713.69V155.988H1708.12V171H1704.32V155.988H1698.76ZM1716.85 176.114C1716.37 176.114 1715.92 176.075 1715.5 175.998C1715.09 175.927 1714.74 175.835 1714.47 175.723L1715.32 172.9C1715.77 173.036 1716.17 173.11 1716.52 173.122C1716.88 173.134 1717.19 173.051 1717.45 172.873C1717.72 172.696 1717.94 172.394 1718.1 171.968L1718.32 171.391L1713.43 157.364H1717.41L1720.23 167.378H1720.37L1723.22 157.364H1727.23L1721.93 172.474C1721.67 173.208 1721.33 173.847 1720.89 174.391C1720.46 174.942 1719.91 175.365 1719.25 175.661C1718.58 175.963 1717.79 176.114 1716.85 176.114ZM1729.16 176.114V157.364H1732.89V159.654H1733.06C1733.23 159.287 1733.47 158.914 1733.78 158.536C1734.1 158.151 1734.51 157.831 1735.02 157.577C1735.54 157.316 1736.18 157.186 1736.94 157.186C1737.93 157.186 1738.85 157.446 1739.69 157.967C1740.53 158.482 1741.2 159.261 1741.71 160.302C1742.21 161.338 1742.46 162.637 1742.46 164.2C1742.46 165.721 1742.22 167.005 1741.73 168.053C1741.24 169.094 1740.58 169.884 1739.74 170.423C1738.9 170.956 1737.97 171.222 1736.93 171.222C1736.2 171.222 1735.57 171.101 1735.06 170.858C1734.55 170.615 1734.13 170.31 1733.81 169.944C1733.48 169.571 1733.23 169.195 1733.06 168.816H1732.95V176.114H1729.16ZM1732.87 164.182C1732.87 164.993 1732.98 165.7 1733.2 166.304C1733.43 166.907 1733.75 167.378 1734.18 167.715C1734.61 168.047 1735.12 168.212 1735.73 168.212C1736.35 168.212 1736.87 168.044 1737.3 167.706C1737.72 167.363 1738.04 166.89 1738.26 166.286C1738.49 165.676 1738.6 164.975 1738.6 164.182C1738.6 163.395 1738.49 162.702 1738.27 162.104C1738.05 161.507 1737.73 161.039 1737.3 160.702C1736.88 160.364 1736.35 160.196 1735.73 160.196C1735.12 160.196 1734.6 160.358 1734.17 160.684C1733.75 161.009 1733.43 161.471 1733.2 162.069C1732.98 162.667 1732.87 163.371 1732.87 164.182ZM1751.2 171.266C1749.8 171.266 1748.59 170.982 1747.58 170.414C1746.57 169.84 1745.79 169.029 1745.25 167.982C1744.71 166.928 1744.43 165.682 1744.43 164.244C1744.43 162.841 1744.71 161.61 1745.25 160.551C1745.79 159.491 1746.56 158.666 1747.55 158.074C1748.54 157.482 1749.71 157.186 1751.05 157.186C1751.95 157.186 1752.78 157.331 1753.56 157.621C1754.34 157.905 1755.02 158.334 1755.6 158.908C1756.19 159.482 1756.64 160.205 1756.97 161.075C1757.29 161.939 1757.46 162.951 1757.46 164.111V165.15H1745.94V162.806H1753.9C1753.9 162.261 1753.78 161.779 1753.54 161.359C1753.31 160.938 1752.98 160.61 1752.56 160.373C1752.14 160.131 1751.66 160.009 1751.11 160.009C1750.54 160.009 1750.03 160.142 1749.58 160.409C1749.14 160.669 1748.8 161.021 1748.55 161.465C1748.3 161.903 1748.18 162.391 1748.17 162.93V165.158C1748.17 165.833 1748.3 166.416 1748.54 166.907C1748.8 167.399 1749.16 167.777 1749.62 168.044C1750.08 168.31 1750.63 168.443 1751.26 168.443C1751.68 168.443 1752.07 168.384 1752.41 168.266C1752.76 168.147 1753.06 167.97 1753.31 167.733C1753.56 167.496 1753.75 167.206 1753.88 166.863L1757.38 167.094C1757.2 167.934 1756.84 168.668 1756.29 169.295C1755.74 169.917 1755.04 170.402 1754.17 170.751C1753.31 171.095 1752.32 171.266 1751.2 171.266ZM1763.17 165.549V165.247C1763.18 164.211 1763.27 163.386 1763.45 162.77C1763.63 162.155 1763.9 161.658 1764.25 161.279C1764.6 160.9 1765.02 160.557 1765.51 160.249C1765.88 160.012 1766.2 159.767 1766.49 159.512C1766.78 159.258 1767.02 158.976 1767.19 158.669C1767.36 158.355 1767.44 158.006 1767.44 157.621C1767.44 157.213 1767.35 156.855 1767.15 156.547C1766.96 156.239 1766.69 156.002 1766.36 155.837C1766.04 155.671 1765.68 155.588 1765.28 155.588C1764.89 155.588 1764.53 155.674 1764.19 155.846C1763.84 156.011 1763.56 156.26 1763.34 156.591C1763.12 156.917 1763.01 157.322 1762.99 157.808H1759.37C1759.4 156.624 1759.68 155.647 1760.22 154.878C1760.76 154.103 1761.47 153.525 1762.36 153.147C1763.25 152.762 1764.23 152.57 1765.3 152.57C1766.47 152.57 1767.52 152.765 1768.42 153.156C1769.33 153.54 1770.04 154.1 1770.55 154.833C1771.07 155.567 1771.32 156.452 1771.32 157.488C1771.32 158.18 1771.21 158.796 1770.98 159.335C1770.75 159.867 1770.44 160.341 1770.03 160.755C1769.62 161.163 1769.14 161.533 1768.58 161.865C1768.11 162.143 1767.73 162.433 1767.43 162.735C1767.13 163.037 1766.91 163.386 1766.76 163.782C1766.62 164.179 1766.55 164.667 1766.54 165.247V165.549H1763.17ZM1764.93 171.231C1764.34 171.231 1763.83 171.024 1763.41 170.609C1763 170.189 1762.8 169.686 1762.8 169.1C1762.8 168.52 1763 168.023 1763.41 167.609C1763.83 167.194 1764.34 166.987 1764.93 166.987C1765.49 166.987 1765.99 167.194 1766.41 167.609C1766.84 168.023 1767.06 168.52 1767.06 169.1C1767.06 169.491 1766.95 169.849 1766.75 170.174C1766.56 170.494 1766.3 170.751 1765.98 170.947C1765.66 171.136 1765.31 171.231 1764.93 171.231Z" fill="white"/>
<rect x="1933" y="69" width="289" height="155" rx="20" fill="#2E4B99"/>
<path d="M1991.13 128.047C1991.06 127.331 1990.75 126.775 1990.21 126.378C1989.68 125.982 1988.94 125.783 1988.02 125.783C1987.39 125.783 1986.86 125.872 1986.43 126.05C1986 126.221 1985.67 126.461 1985.44 126.769C1985.21 127.077 1985.1 127.426 1985.1 127.816C1985.09 128.142 1985.16 128.426 1985.3 128.669C1985.46 128.911 1985.67 129.121 1985.94 129.299C1986.2 129.471 1986.51 129.622 1986.86 129.752C1987.21 129.876 1987.58 129.983 1987.98 130.071L1989.61 130.462C1990.4 130.64 1991.13 130.876 1991.79 131.172C1992.46 131.468 1993.03 131.832 1993.52 132.264C1994 132.696 1994.38 133.205 1994.64 133.791C1994.92 134.377 1995.06 135.049 1995.06 135.806C1995.06 136.919 1994.77 137.884 1994.21 138.701C1993.65 139.511 1992.85 140.142 1991.79 140.592C1990.75 141.036 1989.48 141.257 1988 141.257C1986.54 141.257 1985.26 141.033 1984.17 140.583C1983.09 140.133 1982.24 139.467 1981.63 138.585C1981.03 137.697 1980.71 136.6 1980.68 135.292H1984.4C1984.44 135.901 1984.62 136.41 1984.92 136.819C1985.24 137.221 1985.65 137.526 1986.17 137.733C1986.7 137.934 1987.3 138.035 1987.96 138.035C1988.61 138.035 1989.18 137.94 1989.65 137.751C1990.14 137.561 1990.52 137.298 1990.78 136.961C1991.05 136.623 1991.18 136.236 1991.18 135.798C1991.18 135.389 1991.06 135.046 1990.82 134.768C1990.58 134.49 1990.23 134.253 1989.77 134.058C1989.31 133.862 1988.76 133.685 1988.09 133.525L1986.11 133.028C1984.58 132.655 1983.37 132.072 1982.48 131.279C1981.59 130.486 1981.15 129.417 1981.16 128.074C1981.15 126.973 1981.45 126.011 1982.04 125.189C1982.64 124.366 1983.46 123.724 1984.5 123.262C1985.54 122.8 1986.72 122.57 1988.05 122.57C1989.4 122.57 1990.58 122.8 1991.58 123.262C1992.59 123.724 1993.38 124.366 1993.94 125.189C1994.51 126.011 1994.8 126.964 1994.81 128.047H1991.13ZM1997.58 146.114V127.364H2001.3V129.654H2001.47C2001.64 129.287 2001.88 128.914 2002.19 128.536C2002.51 128.151 2002.93 127.831 2003.44 127.577C2003.95 127.316 2004.59 127.186 2005.35 127.186C2006.35 127.186 2007.26 127.446 2008.11 127.967C2008.95 128.482 2009.62 129.261 2010.12 130.302C2010.62 131.338 2010.88 132.637 2010.88 134.2C2010.88 135.721 2010.63 137.005 2010.14 138.053C2009.65 139.094 2008.99 139.884 2008.15 140.423C2007.32 140.956 2006.38 141.222 2005.34 141.222C2004.61 141.222 2003.99 141.101 2003.47 140.858C2002.96 140.615 2002.54 140.31 2002.22 139.944C2001.89 139.571 2001.65 139.195 2001.47 138.816H2001.36V146.114H1997.58ZM2001.28 134.182C2001.28 134.993 2001.39 135.7 2001.62 136.304C2001.84 136.907 2002.17 137.378 2002.59 137.715C2003.02 138.047 2003.54 138.212 2004.15 138.212C2004.76 138.212 2005.28 138.044 2005.71 137.706C2006.13 137.363 2006.46 136.89 2006.68 136.286C2006.9 135.676 2007.01 134.975 2007.01 134.182C2007.01 133.395 2006.9 132.702 2006.68 132.104C2006.47 131.507 2006.14 131.039 2005.72 130.702C2005.29 130.364 2004.77 130.196 2004.15 130.196C2003.53 130.196 2003.01 130.358 2002.58 130.684C2002.16 131.009 2001.84 131.471 2001.62 132.069C2001.39 132.667 2001.28 133.371 2001.28 134.182ZM2019.56 141.266C2018.18 141.266 2016.99 140.973 2015.98 140.387C2014.98 139.796 2014.21 138.973 2013.66 137.919C2013.12 136.86 2012.85 135.632 2012.85 134.235C2012.85 132.826 2013.12 131.595 2013.66 130.542C2014.21 129.482 2014.98 128.66 2015.98 128.074C2016.99 127.482 2018.18 127.186 2019.56 127.186C2020.94 127.186 2022.13 127.482 2023.13 128.074C2024.13 128.66 2024.91 129.482 2025.45 130.542C2026 131.595 2026.27 132.826 2026.27 134.235C2026.27 135.632 2026 136.86 2025.45 137.919C2024.91 138.973 2024.13 139.796 2023.13 140.387C2022.13 140.973 2020.94 141.266 2019.56 141.266ZM2019.58 138.337C2020.2 138.337 2020.73 138.159 2021.15 137.804C2021.57 137.443 2021.88 136.952 2022.1 136.33C2022.32 135.709 2022.43 135.002 2022.43 134.208C2022.43 133.415 2022.32 132.708 2022.1 132.087C2021.88 131.465 2021.57 130.974 2021.15 130.613C2020.73 130.252 2020.2 130.071 2019.58 130.071C2018.94 130.071 2018.41 130.252 2017.98 130.613C2017.55 130.974 2017.23 131.465 2017.01 132.087C2016.8 132.708 2016.69 133.415 2016.69 134.208C2016.69 135.002 2016.8 135.709 2017.01 136.33C2017.23 136.952 2017.55 137.443 2017.98 137.804C2018.41 138.159 2018.94 138.337 2019.58 138.337ZM2032.51 133.116V141H2028.73V127.364H2032.33V129.77H2032.49C2032.79 128.976 2033.3 128.349 2034.01 127.887C2034.72 127.42 2035.58 127.186 2036.59 127.186C2037.54 127.186 2038.37 127.393 2039.07 127.808C2039.78 128.222 2040.32 128.814 2040.71 129.583C2041.1 130.347 2041.3 131.258 2041.3 132.317V141H2037.52V132.992C2037.52 132.158 2037.31 131.507 2036.88 131.039C2036.45 130.566 2035.85 130.329 2035.09 130.329C2034.58 130.329 2034.14 130.438 2033.74 130.657C2033.36 130.876 2033.06 131.196 2032.84 131.616C2032.63 132.03 2032.52 132.531 2032.51 133.116ZM2055.63 131.252L2052.16 131.465C2052.1 131.169 2051.98 130.903 2051.78 130.666C2051.59 130.424 2051.33 130.231 2051.01 130.089C2050.7 129.941 2050.32 129.867 2049.88 129.867C2049.3 129.867 2048.8 129.991 2048.4 130.24C2048 130.483 2047.8 130.808 2047.8 131.217C2047.8 131.542 2047.93 131.817 2048.19 132.042C2048.45 132.267 2048.89 132.448 2049.53 132.584L2052 133.081C2053.32 133.353 2054.31 133.791 2054.96 134.395C2055.61 134.999 2055.94 135.792 2055.94 136.774C2055.94 137.668 2055.67 138.452 2055.15 139.127C2054.63 139.801 2053.91 140.328 2053 140.707C2052.09 141.08 2051.05 141.266 2049.86 141.266C2048.06 141.266 2046.62 140.891 2045.55 140.139C2044.48 139.381 2043.86 138.351 2043.68 137.049L2047.4 136.854C2047.51 137.404 2047.78 137.825 2048.21 138.115C2048.65 138.399 2049.2 138.541 2049.87 138.541C2050.54 138.541 2051.07 138.414 2051.47 138.159C2051.88 137.899 2052.09 137.564 2052.09 137.156C2052.09 136.813 2051.94 136.531 2051.66 136.312C2051.37 136.088 2050.94 135.916 2050.34 135.798L2047.98 135.327C2046.65 135.061 2045.66 134.599 2045.01 133.942C2044.36 133.285 2044.04 132.448 2044.04 131.43C2044.04 130.554 2044.28 129.799 2044.75 129.166C2045.23 128.533 2045.9 128.044 2046.77 127.701C2047.64 127.358 2048.65 127.186 2049.82 127.186C2051.54 127.186 2052.9 127.55 2053.89 128.278C2054.88 129.006 2055.46 129.997 2055.63 131.252ZM2064.48 141.266C2063.1 141.266 2061.91 140.973 2060.9 140.387C2059.9 139.796 2059.13 138.973 2058.58 137.919C2058.04 136.86 2057.77 135.632 2057.77 134.235C2057.77 132.826 2058.04 131.595 2058.58 130.542C2059.13 129.482 2059.9 128.66 2060.9 128.074C2061.91 127.482 2063.1 127.186 2064.48 127.186C2065.86 127.186 2067.05 127.482 2068.05 128.074C2069.05 128.66 2069.83 129.482 2070.37 130.542C2070.92 131.595 2071.19 132.826 2071.19 134.235C2071.19 135.632 2070.92 136.86 2070.37 137.919C2069.83 138.973 2069.05 139.796 2068.05 140.387C2067.05 140.973 2065.86 141.266 2064.48 141.266ZM2064.5 138.337C2065.12 138.337 2065.65 138.159 2066.07 137.804C2066.49 137.443 2066.81 136.952 2067.02 136.33C2067.24 135.709 2067.35 135.002 2067.35 134.208C2067.35 133.415 2067.24 132.708 2067.02 132.087C2066.81 131.465 2066.49 130.974 2066.07 130.613C2065.65 130.252 2065.12 130.071 2064.5 130.071C2063.86 130.071 2063.33 130.252 2062.9 130.613C2062.47 130.974 2062.15 131.465 2061.93 132.087C2061.72 132.708 2061.61 133.415 2061.61 134.208C2061.61 135.002 2061.72 135.709 2061.93 136.33C2062.15 136.952 2062.47 137.443 2062.9 137.804C2063.33 138.159 2063.86 138.337 2064.5 138.337ZM2073.65 141V127.364H2077.32V129.743H2077.46C2077.71 128.897 2078.12 128.257 2078.71 127.825C2079.3 127.387 2079.97 127.168 2080.73 127.168C2080.92 127.168 2081.13 127.18 2081.35 127.204C2081.57 127.228 2081.76 127.26 2081.92 127.301V130.657C2081.75 130.604 2081.5 130.557 2081.19 130.515C2080.87 130.474 2080.59 130.453 2080.33 130.453C2079.77 130.453 2079.27 130.574 2078.84 130.817C2078.4 131.054 2078.06 131.385 2077.81 131.811C2077.56 132.238 2077.43 132.729 2077.43 133.285V141H2073.65ZM2089.74 141V122.818H2093.58V137.831H2101.38V141H2089.74ZM2103.85 141V127.364H2107.63V141H2103.85ZM2105.75 125.606C2105.19 125.606 2104.71 125.419 2104.3 125.047C2103.91 124.668 2103.71 124.215 2103.71 123.688C2103.71 123.167 2103.91 122.721 2104.3 122.348C2104.71 121.969 2105.19 121.779 2105.75 121.779C2106.31 121.779 2106.79 121.969 2107.19 122.348C2107.59 122.721 2107.79 123.167 2107.79 123.688C2107.79 124.215 2107.59 124.668 2107.19 125.047C2106.79 125.419 2106.31 125.606 2105.75 125.606ZM2114.44 133.116V141H2110.66V127.364H2114.27V129.77H2114.43C2114.73 128.976 2115.23 128.349 2115.94 127.887C2116.65 127.42 2117.52 127.186 2118.53 127.186C2119.47 127.186 2120.3 127.393 2121 127.808C2121.71 128.222 2122.26 128.814 2122.65 129.583C2123.04 130.347 2123.23 131.258 2123.23 132.317V141H2119.45V132.992C2119.46 132.158 2119.24 131.507 2118.81 131.039C2118.38 130.566 2117.79 130.329 2117.03 130.329C2116.52 130.329 2116.07 130.438 2115.68 130.657C2115.29 130.876 2114.99 131.196 2114.77 131.616C2114.56 132.03 2114.45 132.531 2114.44 133.116ZM2129.64 137.076L2129.65 132.539H2130.2L2134.57 127.364H2138.91L2133.04 134.217H2132.14L2129.64 137.076ZM2126.21 141V122.818H2130V141H2126.21ZM2134.74 141L2130.72 135.061L2133.25 132.388L2139.17 141H2134.74ZM2146.42 141.266C2145.01 141.266 2143.81 140.982 2142.8 140.414C2141.79 139.84 2141.01 139.029 2140.47 137.982C2139.92 136.928 2139.65 135.682 2139.65 134.244C2139.65 132.841 2139.92 131.61 2140.47 130.551C2141.01 129.491 2141.78 128.666 2142.77 128.074C2143.76 127.482 2144.93 127.186 2146.27 127.186C2147.17 127.186 2148 127.331 2148.78 127.621C2149.56 127.905 2150.24 128.334 2150.82 128.908C2151.41 129.482 2151.86 130.205 2152.19 131.075C2152.51 131.939 2152.68 132.951 2152.68 134.111V135.15H2141.16V132.806H2149.12C2149.12 132.261 2149 131.779 2148.76 131.359C2148.52 130.938 2148.2 130.61 2147.78 130.373C2147.36 130.131 2146.88 130.009 2146.33 130.009C2145.75 130.009 2145.25 130.142 2144.8 130.409C2144.36 130.669 2144.02 131.021 2143.77 131.465C2143.52 131.903 2143.4 132.391 2143.39 132.93V135.158C2143.39 135.833 2143.51 136.416 2143.76 136.907C2144.02 137.399 2144.38 137.777 2144.84 138.044C2145.3 138.31 2145.85 138.443 2146.48 138.443C2146.9 138.443 2147.28 138.384 2147.63 138.266C2147.98 138.147 2148.28 137.97 2148.53 137.733C2148.78 137.496 2148.97 137.206 2149.1 136.863L2152.6 137.094C2152.42 137.934 2152.05 138.668 2151.5 139.295C2150.96 139.917 2150.26 140.402 2149.39 140.751C2148.53 141.095 2147.54 141.266 2146.42 141.266ZM2160.17 141.222C2159.13 141.222 2158.2 140.956 2157.36 140.423C2156.52 139.884 2155.86 139.094 2155.37 138.053C2154.88 137.005 2154.64 135.721 2154.64 134.2C2154.64 132.637 2154.89 131.338 2155.39 130.302C2155.9 129.261 2156.56 128.482 2157.4 127.967C2158.24 127.446 2159.16 127.186 2160.16 127.186C2160.92 127.186 2161.56 127.316 2162.07 127.577C2162.58 127.831 2163 128.151 2163.31 128.536C2163.63 128.914 2163.87 129.287 2164.04 129.654H2164.16V122.818H2167.93V141H2164.2V138.816H2164.04C2163.86 139.195 2163.61 139.571 2163.29 139.944C2162.97 140.31 2162.55 140.615 2162.03 140.858C2161.52 141.101 2160.9 141.222 2160.17 141.222ZM2161.37 138.212C2161.98 138.212 2162.49 138.047 2162.91 137.715C2163.34 137.378 2163.66 136.907 2163.89 136.304C2164.12 135.7 2164.24 134.993 2164.24 134.182C2164.24 133.371 2164.12 132.667 2163.9 132.069C2163.67 131.471 2163.35 131.009 2162.92 130.684C2162.5 130.358 2161.98 130.196 2161.37 130.196C2160.75 130.196 2160.22 130.364 2159.8 130.702C2159.37 131.039 2159.05 131.507 2158.83 132.104C2158.61 132.702 2158.5 133.395 2158.5 134.182C2158.5 134.975 2158.61 135.676 2158.83 136.286C2159.05 136.89 2159.38 137.363 2159.8 137.706C2160.22 138.044 2160.75 138.212 2161.37 138.212ZM2019.22 157.364V160.205H2011.01V157.364H2019.22ZM2012.87 154.097H2016.66V166.81C2016.66 167.159 2016.71 167.431 2016.82 167.626C2016.92 167.816 2017.07 167.949 2017.26 168.026C2017.45 168.103 2017.68 168.141 2017.93 168.141C2018.11 168.141 2018.29 168.127 2018.47 168.097C2018.64 168.061 2018.78 168.035 2018.88 168.017L2019.47 170.831C2019.28 170.891 2019.01 170.959 2018.67 171.036C2018.33 171.118 2017.91 171.169 2017.42 171.186C2016.51 171.222 2015.71 171.101 2015.02 170.822C2014.34 170.544 2013.81 170.112 2013.43 169.526C2013.05 168.94 2012.87 168.201 2012.87 167.307V154.097ZM2027.7 171.266C2026.32 171.266 2025.13 170.973 2024.12 170.387C2023.12 169.796 2022.35 168.973 2021.8 167.919C2021.26 166.86 2020.99 165.632 2020.99 164.235C2020.99 162.826 2021.26 161.595 2021.8 160.542C2022.35 159.482 2023.12 158.66 2024.12 158.074C2025.13 157.482 2026.32 157.186 2027.7 157.186C2029.08 157.186 2030.27 157.482 2031.27 158.074C2032.27 158.66 2033.05 159.482 2033.59 160.542C2034.14 161.595 2034.41 162.826 2034.41 164.235C2034.41 165.632 2034.14 166.86 2033.59 167.919C2033.05 168.973 2032.27 169.796 2031.27 170.387C2030.27 170.973 2029.08 171.266 2027.7 171.266ZM2027.72 168.337C2028.34 168.337 2028.87 168.159 2029.29 167.804C2029.71 167.443 2030.03 166.952 2030.24 166.33C2030.46 165.709 2030.57 165.002 2030.57 164.208C2030.57 163.415 2030.46 162.708 2030.24 162.087C2030.03 161.465 2029.71 160.974 2029.29 160.613C2028.87 160.252 2028.34 160.071 2027.72 160.071C2027.08 160.071 2026.55 160.252 2026.12 160.613C2025.69 160.974 2025.37 161.465 2025.15 162.087C2024.94 162.708 2024.83 163.415 2024.83 164.208C2024.83 165.002 2024.94 165.709 2025.15 166.33C2025.37 166.952 2025.69 167.443 2026.12 167.804C2026.55 168.159 2027.08 168.337 2027.72 168.337ZM2049.91 157.364V160.205H2041.7V157.364H2049.91ZM2043.56 154.097H2047.34V166.81C2047.34 167.159 2047.4 167.431 2047.5 167.626C2047.61 167.816 2047.76 167.949 2047.95 168.026C2048.14 168.103 2048.37 168.141 2048.62 168.141C2048.8 168.141 2048.98 168.127 2049.16 168.097C2049.33 168.061 2049.47 168.035 2049.56 168.017L2050.16 170.831C2049.97 170.891 2049.7 170.959 2049.36 171.036C2049.02 171.118 2048.6 171.169 2048.11 171.186C2047.2 171.222 2046.4 171.101 2045.71 170.822C2045.03 170.544 2044.5 170.112 2044.12 169.526C2043.74 168.94 2043.56 168.201 2043.56 167.307V154.097ZM2056.45 163.116V171H2052.67V152.818H2056.34V159.77H2056.5C2056.81 158.965 2057.31 158.334 2057.99 157.879C2058.68 157.417 2059.54 157.186 2060.58 157.186C2061.52 157.186 2062.35 157.393 2063.05 157.808C2063.76 158.216 2064.31 158.805 2064.7 159.574C2065.1 160.338 2065.3 161.252 2065.29 162.317V171H2061.51V162.992C2061.51 162.152 2061.3 161.498 2060.87 161.03C2060.44 160.563 2059.85 160.329 2059.08 160.329C2058.56 160.329 2058.11 160.438 2057.71 160.657C2057.32 160.876 2057.01 161.196 2056.79 161.616C2056.57 162.03 2056.45 162.531 2056.45 163.116ZM2074.48 171.266C2073.08 171.266 2071.87 170.982 2070.86 170.414C2069.85 169.84 2069.08 169.029 2068.53 167.982C2067.99 166.928 2067.72 165.682 2067.72 164.244C2067.72 162.841 2067.99 161.61 2068.53 160.551C2069.08 159.491 2069.84 158.666 2070.83 158.074C2071.83 157.482 2072.99 157.186 2074.33 157.186C2075.23 157.186 2076.07 157.331 2076.84 157.621C2077.62 157.905 2078.3 158.334 2078.88 158.908C2079.47 159.482 2079.93 160.205 2080.25 161.075C2080.58 161.939 2080.74 162.951 2080.74 164.111V165.15H2069.23V162.806H2077.18C2077.18 162.261 2077.06 161.779 2076.83 161.359C2076.59 160.938 2076.26 160.61 2075.84 160.373C2075.43 160.131 2074.94 160.009 2074.39 160.009C2073.82 160.009 2073.31 160.142 2072.87 160.409C2072.43 160.669 2072.08 161.021 2071.84 161.465C2071.59 161.903 2071.46 162.391 2071.45 162.93V165.158C2071.45 165.833 2071.58 166.416 2071.83 166.907C2072.08 167.399 2072.44 167.777 2072.9 168.044C2073.36 168.31 2073.91 168.443 2074.54 168.443C2074.96 168.443 2075.35 168.384 2075.7 168.266C2076.05 168.147 2076.35 167.97 2076.59 167.733C2076.84 167.496 2077.03 167.206 2077.16 166.863L2080.66 167.094C2080.48 167.934 2080.12 168.668 2079.57 169.295C2079.02 169.917 2078.32 170.402 2077.46 170.751C2076.6 171.095 2075.61 171.266 2074.48 171.266ZM2105.11 159.184H2101.22C2101.15 158.681 2101 158.234 2100.78 157.843C2100.57 157.446 2100.28 157.109 2099.94 156.831C2099.6 156.553 2099.2 156.34 2098.75 156.192C2098.31 156.044 2097.83 155.97 2097.3 155.97C2096.36 155.97 2095.54 156.204 2094.85 156.671C2094.15 157.133 2093.61 157.808 2093.22 158.695C2092.84 159.577 2092.64 160.648 2092.64 161.909C2092.64 163.205 2092.84 164.294 2093.22 165.176C2093.61 166.058 2094.16 166.724 2094.85 167.174C2095.55 167.623 2096.36 167.848 2097.28 167.848C2097.79 167.848 2098.27 167.78 2098.71 167.644C2099.15 167.508 2099.54 167.31 2099.89 167.049C2100.23 166.783 2100.52 166.46 2100.74 166.082C2100.97 165.703 2101.13 165.271 2101.22 164.786L2105.11 164.803C2105.01 165.638 2104.76 166.443 2104.35 167.218C2103.96 167.987 2103.42 168.677 2102.75 169.287C2102.08 169.89 2101.28 170.37 2100.35 170.725C2099.43 171.074 2098.38 171.249 2097.22 171.249C2095.59 171.249 2094.14 170.882 2092.87 170.148C2091.59 169.414 2090.59 168.351 2089.85 166.961C2089.11 165.57 2088.75 163.886 2088.75 161.909C2088.75 159.926 2089.12 158.24 2089.86 156.849C2090.61 155.458 2091.62 154.398 2092.9 153.67C2094.18 152.937 2095.62 152.57 2097.22 152.57C2098.27 152.57 2099.25 152.718 2100.15 153.013C2101.05 153.309 2101.85 153.741 2102.55 154.31C2103.25 154.872 2103.82 155.561 2104.26 156.378C2104.7 157.195 2104.98 158.13 2105.11 159.184ZM2111.58 152.818V171H2107.79V152.818H2111.58ZM2123.35 165.194V157.364H2127.13V171H2123.5V168.523H2123.36C2123.05 169.322 2122.54 169.964 2121.82 170.45C2121.11 170.935 2120.25 171.178 2119.22 171.178C2118.31 171.178 2117.51 170.97 2116.82 170.556C2116.12 170.142 2115.58 169.553 2115.19 168.789C2114.81 168.026 2114.61 167.112 2114.6 166.046V157.364H2118.39V165.371C2118.39 166.176 2118.61 166.813 2119.03 167.28C2119.46 167.748 2120.03 167.982 2120.75 167.982C2121.2 167.982 2121.63 167.878 2122.03 167.671C2122.42 167.458 2122.74 167.144 2122.99 166.73C2123.23 166.315 2123.36 165.804 2123.35 165.194ZM2130.23 171V152.818H2134.01V159.654H2134.13C2134.29 159.287 2134.53 158.914 2134.84 158.536C2135.16 158.151 2135.58 157.831 2136.09 157.577C2136.6 157.316 2137.24 157.186 2138 157.186C2139 157.186 2139.92 157.446 2140.76 157.967C2141.6 158.482 2142.27 159.261 2142.77 160.302C2143.28 161.338 2143.53 162.637 2143.53 164.2C2143.53 165.721 2143.28 167.005 2142.79 168.053C2142.3 169.094 2141.64 169.884 2140.8 170.423C2139.97 170.956 2139.03 171.222 2138 171.222C2137.26 171.222 2136.64 171.101 2136.12 170.858C2135.61 170.615 2135.2 170.31 2134.87 169.944C2134.55 169.571 2134.3 169.195 2134.13 168.816H2133.96V171H2130.23ZM2133.93 164.182C2133.93 164.993 2134.04 165.7 2134.27 166.304C2134.49 166.907 2134.82 167.378 2135.24 167.715C2135.67 168.047 2136.19 168.212 2136.8 168.212C2137.41 168.212 2137.93 168.044 2138.36 167.706C2138.79 167.363 2139.11 166.89 2139.33 166.286C2139.55 165.676 2139.66 164.975 2139.66 164.182C2139.66 163.395 2139.56 162.702 2139.34 162.104C2139.12 161.507 2138.79 161.039 2138.37 160.702C2137.94 160.364 2137.42 160.196 2136.8 160.196C2136.18 160.196 2135.66 160.358 2135.23 160.684C2134.81 161.009 2134.49 161.471 2134.27 162.069C2134.04 162.667 2133.93 163.371 2133.93 164.182Z" fill="white"/>
<rect x="1575" y="506" width="289" height="155" rx="20" fill="#2E4B99"/>
<path d="M1663.1 593V590.718L1672.17 577.988H1663.08V574.818H1677V577.1L1667.92 589.831H1677.02V593H1663.1ZM1679.9 593V579.364H1683.68V593H1679.9ZM1681.8 577.606C1681.23 577.606 1680.75 577.419 1680.35 577.047C1679.95 576.668 1679.75 576.215 1679.75 575.688C1679.75 575.167 1679.95 574.721 1680.35 574.348C1680.75 573.969 1681.23 573.779 1681.8 573.779C1682.36 573.779 1682.84 573.969 1683.23 574.348C1683.64 574.721 1683.84 575.167 1683.84 575.688C1683.84 576.215 1683.64 576.668 1683.23 577.047C1682.84 577.419 1682.36 577.606 1681.8 577.606ZM1686.71 598.114V579.364H1690.44V581.654H1690.6C1690.77 581.287 1691.01 580.914 1691.32 580.536C1691.64 580.151 1692.06 579.831 1692.57 579.577C1693.08 579.316 1693.72 579.186 1694.48 579.186C1695.48 579.186 1696.4 579.446 1697.24 579.967C1698.08 580.482 1698.75 581.261 1699.25 582.302C1699.75 583.338 1700.01 584.637 1700.01 586.2C1700.01 587.721 1699.76 589.005 1699.27 590.053C1698.78 591.094 1698.12 591.884 1697.28 592.423C1696.45 592.956 1695.51 593.222 1694.48 593.222C1693.74 593.222 1693.12 593.101 1692.6 592.858C1692.09 592.615 1691.68 592.31 1691.35 591.944C1691.03 591.571 1690.78 591.195 1690.6 590.816H1690.49V598.114H1686.71ZM1690.41 586.182C1690.41 586.993 1690.52 587.7 1690.75 588.304C1690.97 588.907 1691.3 589.378 1691.72 589.715C1692.15 590.047 1692.67 590.212 1693.28 590.212C1693.89 590.212 1694.41 590.044 1694.84 589.706C1695.27 589.363 1695.59 588.89 1695.81 588.286C1696.03 587.676 1696.14 586.975 1696.14 586.182C1696.14 585.395 1696.04 584.702 1695.82 584.104C1695.6 583.507 1695.27 583.039 1694.85 582.702C1694.42 582.364 1693.9 582.196 1693.28 582.196C1692.66 582.196 1692.14 582.358 1691.71 582.684C1691.29 583.009 1690.97 583.471 1690.75 584.069C1690.52 584.667 1690.41 585.371 1690.41 586.182ZM1710.45 573.966L1704.59 595.734H1701.33L1707.19 573.966H1710.45ZM1711.65 577.988V574.818H1726.58V577.988H1721.01V593H1717.21V577.988H1711.65ZM1733.15 593.266C1731.77 593.266 1730.58 592.973 1729.57 592.387C1728.57 591.796 1727.8 590.973 1727.26 589.919C1726.71 588.86 1726.44 587.632 1726.44 586.235C1726.44 584.826 1726.71 583.595 1727.26 582.542C1727.8 581.482 1728.57 580.66 1729.57 580.074C1730.58 579.482 1731.77 579.186 1733.15 579.186C1734.53 579.186 1735.72 579.482 1736.72 580.074C1737.73 580.66 1738.5 581.482 1739.05 582.542C1739.59 583.595 1739.86 584.826 1739.86 586.235C1739.86 587.632 1739.59 588.86 1739.05 589.919C1738.5 590.973 1737.73 591.796 1736.72 592.387C1735.72 592.973 1734.53 593.266 1733.15 593.266ZM1733.17 590.337C1733.8 590.337 1734.32 590.159 1734.74 589.804C1735.16 589.443 1735.48 588.952 1735.69 588.33C1735.91 587.709 1736.02 587.002 1736.02 586.208C1736.02 585.415 1735.91 584.708 1735.69 584.087C1735.48 583.465 1735.16 582.974 1734.74 582.613C1734.32 582.252 1733.8 582.071 1733.17 582.071C1732.54 582.071 1732 582.252 1731.57 582.613C1731.15 582.974 1730.82 583.465 1730.6 584.087C1730.39 584.708 1730.28 585.415 1730.28 586.208C1730.28 587.002 1730.39 587.709 1730.6 588.33C1730.82 588.952 1731.15 589.443 1731.57 589.804C1732 590.159 1732.54 590.337 1733.17 590.337ZM1744.67 593L1740.96 579.364H1744.79L1746.9 588.526H1747.02L1749.23 579.364H1752.98L1755.22 588.472H1755.33L1757.41 579.364H1761.23L1757.53 593H1753.52L1751.18 584.424H1751.01L1748.67 593H1744.67ZM1767.03 585.116V593H1763.25V579.364H1766.85V581.77H1767.01C1767.31 580.976 1767.82 580.349 1768.53 579.887C1769.24 579.42 1770.1 579.186 1771.11 579.186C1772.06 579.186 1772.88 579.393 1773.59 579.808C1774.29 580.222 1774.84 580.814 1775.23 581.583C1775.62 582.347 1775.82 583.258 1775.82 584.317V593H1772.03V584.992C1772.04 584.158 1771.83 583.507 1771.4 583.039C1770.96 582.566 1770.37 582.329 1769.61 582.329C1769.1 582.329 1768.65 582.438 1768.26 582.657C1767.88 582.876 1767.57 583.196 1767.36 583.616C1767.14 584.03 1767.03 584.531 1767.03 585.116Z" fill="white"/>
<path d="M492 357C491.448 357 491 357.448 491 358C491 358.552 491.448 359 492 359V357ZM524.707 358.707C525.098 358.317 525.098 357.683 524.707 357.293L518.343 350.929C517.953 350.538 517.319 350.538 516.929 350.929C516.538 351.319 516.538 351.953 516.929 352.343L522.586 358L516.929 363.657C516.538 364.047 516.538 364.681 516.929 365.071C517.319 365.462 517.953 365.462 518.343 365.071L524.707 358.707ZM492 359H524V357H492V359Z" fill="#F29100"/>
<path d="M840 357C839.448 357 839 357.448 839 358C839 358.552 839.448 359 840 359V357ZM872.707 358.707C873.098 358.317 873.098 357.683 872.707 357.293L866.343 350.929C865.953 350.538 865.319 350.538 864.929 350.929C864.538 351.319 864.538 351.953 864.929 352.343L870.586 358L864.929 363.657C864.538 364.047 864.538 364.681 864.929 365.071C865.319 365.462 865.953 365.462 866.343 365.071L872.707 358.707ZM840 359H872V357H840V359Z" fill="#F29100"/>
<path d="M1188 357C1187.45 357 1187 357.448 1187 358C1187 358.552 1187.45 359 1188 359V357ZM1220.71 358.707C1221.1 358.317 1221.1 357.683 1220.71 357.293L1214.34 350.929C1213.95 350.538 1213.32 350.538 1212.93 350.929C1212.54 351.319 1212.54 351.953 1212.93 352.343L1218.59 358L1212.93 363.657C1212.54 364.047 1212.54 364.681 1212.93 365.071C1213.32 365.462 1213.95 365.462 1214.34 365.071L1220.71 358.707ZM1188 359H1220V357H1188V359Z" fill="#F29100"/>
<path d="M1883 146C1882.45 146 1882 146.448 1882 147C1882 147.552 1882.45 148 1883 148V146ZM1915.71 147.707C1916.1 147.317 1916.1 146.683 1915.71 146.293L1909.34 139.929C1908.95 139.538 1908.32 139.538 1907.93 139.929C1907.54 140.319 1907.54 140.953 1907.93 141.343L1913.59 147L1907.93 152.657C1907.54 153.047 1907.54 153.681 1907.93 154.071C1908.32 154.462 1908.95 154.462 1909.34 154.071L1915.71 147.707ZM1883 148H1915V146H1883V148Z" fill="#F29100"/>
<path d="M1377.33 254C1377.33 254.553 1377.78 255 1378.33 255C1378.88 255 1379.33 254.553 1379.33 254L1377.33 254ZM1563.04 138.707C1563.43 138.317 1563.43 137.684 1563.04 137.293L1556.67 130.929C1556.28 130.539 1555.65 130.539 1555.26 130.929C1554.87 131.32 1554.87 131.953 1555.26 132.343L1560.92 138L1555.26 143.657C1554.87 144.048 1554.87 144.681 1555.26 145.071C1555.65 145.462 1556.28 145.462 1556.67 145.071L1563.04 138.707ZM1378.33 138L1378.33 137L1377.33 137L1377.33 138L1378.33 138ZM1379.33 254L1379.33 138L1377.33 138L1377.33 254L1379.33 254ZM1378.33 139L1562.33 139L1562.33 137L1378.33 137L1378.33 139Z" fill="#F29100"/>
<path d="M1379.12 457C1379.12 456.448 1378.67 456 1378.12 456C1377.57 456 1377.12 456.448 1377.12 457L1379.12 457ZM1559.71 588.207C1560.1 587.817 1560.1 587.183 1559.71 586.793L1553.34 580.429C1552.95 580.038 1552.32 580.038 1551.93 580.429C1551.54 580.819 1551.54 581.453 1551.93 581.843L1557.59 587.5L1551.93 593.157C1551.54 593.547 1551.54 594.181 1551.93 594.571C1552.32 594.962 1552.95 594.962 1553.34 594.571L1559.71 588.207ZM1378.12 587.5L1377.12 587.5L1377.12 588.5L1378.12 588.5L1378.12 587.5ZM1377.12 457L1377.12 587.5L1379.12 587.5L1379.12 457L1377.12 457ZM1378.12 588.5L1559 588.5L1559 586.5L1378.12 586.5L1378.12 588.5Z" fill="#F29100"/>
</svg>
