<svg width="1722" height="715" viewBox="0 0 1722 715" fill="none" xmlns="http://www.w3.org/2000/svg">
<rect width="1722" height="715" fill="white"/>
<rect x="189" y="280" width="289" height="155" rx="20" fill="#2E4B99"/>
<rect x="537" y="280" width="289" height="155" rx="20" fill="#2E4B99"/>
<rect x="885" y="280" width="289" height="155" rx="20" fill="#2E4B99"/>
<rect x="1244" y="280" width="289" height="155" rx="20" fill="#2E4B99"/>
<path d="M256.515 367V348.818H263.689C265.062 348.818 266.234 349.064 267.204 349.555C268.181 350.04 268.924 350.73 269.433 351.624C269.947 352.511 270.205 353.556 270.205 354.757C270.205 355.965 269.945 357.004 269.424 357.874C268.903 358.738 268.148 359.401 267.16 359.862C266.177 360.324 264.988 360.555 263.591 360.555H258.788V357.465H262.97C263.703 357.465 264.313 357.365 264.798 357.163C265.284 356.962 265.645 356.66 265.881 356.258C266.124 355.855 266.245 355.355 266.245 354.757C266.245 354.154 266.124 353.645 265.881 353.23C265.645 352.816 265.281 352.502 264.789 352.289C264.304 352.07 263.692 351.961 262.952 351.961H260.359V367H256.515ZM266.334 358.726L270.853 367H266.609L262.188 358.726H266.334ZM278.845 367.266C277.443 367.266 276.235 366.982 275.223 366.414C274.217 365.84 273.442 365.029 272.897 363.982C272.353 362.928 272.08 361.682 272.08 360.244C272.08 358.841 272.353 357.61 272.897 356.551C273.442 355.491 274.208 354.666 275.197 354.074C276.191 353.482 277.357 353.186 278.694 353.186C279.594 353.186 280.431 353.331 281.207 353.621C281.988 353.905 282.669 354.334 283.249 354.908C283.835 355.482 284.29 356.205 284.616 357.075C284.941 357.939 285.104 358.951 285.104 360.111V361.15H273.59V358.806H281.544C281.544 358.261 281.426 357.779 281.189 357.359C280.952 356.938 280.624 356.61 280.204 356.373C279.789 356.131 279.307 356.009 278.757 356.009C278.182 356.009 277.673 356.142 277.23 356.409C276.792 356.669 276.448 357.021 276.2 357.465C275.951 357.903 275.824 358.391 275.818 358.93V361.158C275.818 361.833 275.942 362.416 276.191 362.907C276.445 363.399 276.803 363.777 277.265 364.044C277.727 364.31 278.274 364.443 278.907 364.443C279.328 364.443 279.712 364.384 280.062 364.266C280.411 364.147 280.71 363.97 280.958 363.733C281.207 363.496 281.396 363.206 281.526 362.863L285.024 363.094C284.847 363.934 284.483 364.668 283.932 365.295C283.388 365.917 282.683 366.402 281.819 366.751C280.961 367.095 279.97 367.266 278.845 367.266ZM293.733 367.266C292.337 367.266 291.135 366.97 290.129 366.379C289.129 365.781 288.359 364.952 287.821 363.893C287.288 362.833 287.022 361.614 287.022 360.235C287.022 358.838 287.291 357.613 287.83 356.56C288.374 355.5 289.147 354.675 290.147 354.083C291.147 353.485 292.337 353.186 293.716 353.186C294.905 353.186 295.947 353.402 296.841 353.834C297.734 354.266 298.442 354.873 298.962 355.654C299.483 356.435 299.77 357.353 299.824 358.406H296.255C296.154 357.726 295.888 357.178 295.456 356.764C295.03 356.344 294.47 356.134 293.778 356.134C293.192 356.134 292.68 356.293 292.242 356.613C291.81 356.927 291.473 357.385 291.23 357.989C290.987 358.593 290.866 359.324 290.866 360.182C290.866 361.052 290.984 361.792 291.221 362.401C291.464 363.011 291.804 363.475 292.242 363.795C292.68 364.115 293.192 364.275 293.778 364.275C294.21 364.275 294.598 364.186 294.941 364.008C295.29 363.831 295.577 363.573 295.802 363.236C296.033 362.893 296.184 362.481 296.255 362.002H299.824C299.764 363.043 299.48 363.961 298.971 364.754C298.468 365.541 297.773 366.157 296.885 366.6C295.997 367.044 294.947 367.266 293.733 367.266ZM308.46 367.266C307.057 367.266 305.849 366.982 304.837 366.414C303.831 365.84 303.056 365.029 302.511 363.982C301.967 362.928 301.695 361.682 301.695 360.244C301.695 358.841 301.967 357.61 302.511 356.551C303.056 355.491 303.822 354.666 304.811 354.074C305.805 353.482 306.971 353.186 308.309 353.186C309.208 353.186 310.046 353.331 310.821 353.621C311.602 353.905 312.283 354.334 312.863 354.908C313.449 355.482 313.905 356.205 314.23 357.075C314.556 357.939 314.718 358.951 314.718 360.111V361.15H303.204V358.806H311.158C311.158 358.261 311.04 357.779 310.803 357.359C310.567 356.938 310.238 356.61 309.818 356.373C309.404 356.131 308.921 356.009 308.371 356.009C307.797 356.009 307.288 356.142 306.844 356.409C306.406 356.669 306.063 357.021 305.814 357.465C305.565 357.903 305.438 358.391 305.432 358.93V361.158C305.432 361.833 305.557 362.416 305.805 362.907C306.06 363.399 306.418 363.777 306.879 364.044C307.341 364.31 307.888 364.443 308.522 364.443C308.942 364.443 309.327 364.384 309.676 364.266C310.025 364.147 310.324 363.97 310.572 363.733C310.821 363.496 311.01 363.206 311.141 362.863L314.639 363.094C314.461 363.934 314.097 364.668 313.547 365.295C313.002 365.917 312.298 366.402 311.434 366.751C310.575 367.095 309.584 367.266 308.46 367.266ZM317.186 367V353.364H320.968V367H317.186ZM319.086 351.606C318.524 351.606 318.042 351.419 317.639 351.047C317.243 350.668 317.044 350.215 317.044 349.688C317.044 349.167 317.243 348.721 317.639 348.348C318.042 347.969 318.524 347.779 319.086 347.779C319.649 347.779 320.128 347.969 320.525 348.348C320.927 348.721 321.128 349.167 321.128 349.688C321.128 350.215 320.927 350.668 320.525 351.047C320.128 351.419 319.649 351.606 319.086 351.606ZM336.711 353.364L331.944 367H327.682L322.915 353.364H326.91L329.742 363.12H329.884L332.707 353.364H336.711ZM344.421 367.266C343.019 367.266 341.811 366.982 340.799 366.414C339.793 365.84 339.018 365.029 338.473 363.982C337.929 362.928 337.657 361.682 337.657 360.244C337.657 358.841 337.929 357.61 338.473 356.551C339.018 355.491 339.784 354.666 340.773 354.074C341.767 353.482 342.933 353.186 344.271 353.186C345.17 353.186 346.008 353.331 346.783 353.621C347.564 353.905 348.245 354.334 348.825 354.908C349.411 355.482 349.867 356.205 350.192 357.075C350.518 357.939 350.68 358.951 350.68 360.111V361.15H339.166V358.806H347.12C347.12 358.261 347.002 357.779 346.765 357.359C346.528 356.938 346.2 356.61 345.78 356.373C345.365 356.131 344.883 356.009 344.333 356.009C343.759 356.009 343.25 356.142 342.806 356.409C342.368 356.669 342.024 357.021 341.776 357.465C341.527 357.903 341.4 358.391 341.394 358.93V361.158C341.394 361.833 341.518 362.416 341.767 362.907C342.021 363.399 342.38 363.777 342.841 364.044C343.303 364.31 343.85 364.443 344.484 364.443C344.904 364.443 345.289 364.384 345.638 364.266C345.987 364.147 346.286 363.97 346.534 363.733C346.783 363.496 346.972 363.206 347.103 362.863L350.6 363.094C350.423 363.934 350.059 364.668 349.508 365.295C348.964 365.917 348.26 366.402 347.396 366.751C346.537 367.095 345.546 367.266 344.421 367.266ZM368.869 354.047C368.798 353.331 368.493 352.775 367.954 352.378C367.416 351.982 366.685 351.783 365.762 351.783C365.134 351.783 364.605 351.872 364.172 352.05C363.74 352.221 363.409 352.461 363.178 352.769C362.953 353.077 362.841 353.426 362.841 353.816C362.829 354.142 362.897 354.426 363.045 354.669C363.199 354.911 363.409 355.121 363.675 355.299C363.942 355.471 364.249 355.622 364.599 355.752C364.948 355.876 365.321 355.983 365.717 356.071L367.351 356.462C368.144 356.64 368.872 356.876 369.535 357.172C370.198 357.468 370.772 357.832 371.257 358.264C371.742 358.696 372.118 359.205 372.384 359.791C372.657 360.377 372.796 361.049 372.802 361.806C372.796 362.919 372.512 363.884 371.949 364.701C371.393 365.511 370.588 366.142 369.535 366.592C368.487 367.036 367.223 367.257 365.744 367.257C364.276 367.257 362.998 367.033 361.909 366.583C360.826 366.133 359.979 365.467 359.37 364.585C358.766 363.697 358.449 362.6 358.42 361.292H362.139C362.181 361.901 362.355 362.41 362.663 362.819C362.977 363.221 363.394 363.526 363.915 363.733C364.442 363.934 365.037 364.035 365.699 364.035C366.35 364.035 366.916 363.94 367.395 363.751C367.88 363.561 368.256 363.298 368.523 362.961C368.789 362.623 368.922 362.236 368.922 361.798C368.922 361.389 368.801 361.046 368.558 360.768C368.321 360.49 367.972 360.253 367.511 360.058C367.055 359.862 366.495 359.685 365.833 359.525L363.853 359.028C362.32 358.655 361.11 358.072 360.222 357.279C359.334 356.486 358.893 355.417 358.899 354.074C358.893 352.973 359.186 352.011 359.778 351.189C360.376 350.366 361.195 349.724 362.237 349.262C363.279 348.8 364.462 348.57 365.788 348.57C367.138 348.57 368.315 348.8 369.322 349.262C370.334 349.724 371.121 350.366 371.683 351.189C372.245 352.011 372.535 352.964 372.553 354.047H368.869ZM375.387 348.818H380.128L385.135 361.034H385.348L390.355 348.818H395.096V367H391.367V355.166H391.217L386.511 366.911H383.972L379.267 355.121H379.116V367H375.387V348.818ZM408.127 354.047C408.056 353.331 407.751 352.775 407.212 352.378C406.674 351.982 405.943 351.783 405.019 351.783C404.392 351.783 403.862 351.872 403.43 352.05C402.998 352.221 402.667 352.461 402.436 352.769C402.211 353.077 402.099 353.426 402.099 353.816C402.087 354.142 402.155 354.426 402.303 354.669C402.457 354.911 402.667 355.121 402.933 355.299C403.199 355.471 403.507 355.622 403.856 355.752C404.206 355.876 404.578 355.983 404.975 356.071L406.609 356.462C407.402 356.64 408.13 356.876 408.792 357.172C409.455 357.468 410.029 357.832 410.515 358.264C411 358.696 411.376 359.205 411.642 359.791C411.915 360.377 412.054 361.049 412.06 361.806C412.054 362.919 411.77 363.884 411.207 364.701C410.651 365.511 409.846 366.142 408.792 366.592C407.745 367.036 406.481 367.257 405.002 367.257C403.534 367.257 402.255 367.033 401.166 366.583C400.083 366.133 399.237 365.467 398.627 364.585C398.024 363.697 397.707 362.6 397.677 361.292H401.397C401.439 361.901 401.613 362.41 401.921 362.819C402.235 363.221 402.652 363.526 403.173 363.733C403.7 363.934 404.294 364.035 404.957 364.035C405.608 364.035 406.174 363.94 406.653 363.751C407.138 363.561 407.514 363.298 407.78 362.961C408.047 362.623 408.18 362.236 408.18 361.798C408.18 361.389 408.059 361.046 407.816 360.768C407.579 360.49 407.23 360.253 406.768 360.058C406.313 359.862 405.753 359.685 405.09 359.525L403.111 359.028C401.578 358.655 400.367 358.072 399.48 357.279C398.592 356.486 398.151 355.417 398.157 354.074C398.151 352.973 398.444 352.011 399.036 351.189C399.634 350.366 400.453 349.724 401.495 349.262C402.537 348.8 403.72 348.57 405.046 348.57C406.395 348.57 407.573 348.8 408.579 349.262C409.591 349.724 410.379 350.366 410.941 351.189C411.503 352.011 411.793 352.964 411.811 354.047H408.127Z" fill="white"/>
<path d="M604.528 352V333.818H611.701C613.074 333.818 614.246 334.064 615.217 334.555C616.193 335.04 616.936 335.73 617.445 336.624C617.96 337.511 618.218 338.556 618.218 339.757C618.218 340.965 617.957 342.004 617.436 342.874C616.916 343.738 616.161 344.401 615.173 344.862C614.19 345.324 613 345.555 611.604 345.555H606.801V342.465H610.982C611.716 342.465 612.326 342.365 612.811 342.163C613.296 341.962 613.657 341.66 613.894 341.258C614.137 340.855 614.258 340.355 614.258 339.757C614.258 339.154 614.137 338.645 613.894 338.23C613.657 337.816 613.293 337.502 612.802 337.289C612.317 337.07 611.704 336.961 610.964 336.961H608.372V352H604.528ZM614.347 343.726L618.866 352H614.622L610.201 343.726H614.347ZM626.858 352.266C625.455 352.266 624.248 351.982 623.236 351.414C622.23 350.84 621.454 350.029 620.91 348.982C620.365 347.928 620.093 346.682 620.093 345.244C620.093 343.841 620.365 342.61 620.91 341.551C621.454 340.491 622.221 339.666 623.209 339.074C624.204 338.482 625.369 338.186 626.707 338.186C627.607 338.186 628.444 338.331 629.22 338.621C630.001 338.905 630.681 339.334 631.261 339.908C631.847 340.482 632.303 341.205 632.629 342.075C632.954 342.939 633.117 343.951 633.117 345.111V346.15H621.602V343.806H629.557C629.557 343.261 629.438 342.779 629.202 342.359C628.965 341.938 628.637 341.61 628.216 341.373C627.802 341.131 627.32 341.009 626.769 341.009C626.195 341.009 625.686 341.142 625.242 341.409C624.804 341.669 624.461 342.021 624.212 342.465C623.964 342.903 623.837 343.391 623.831 343.93V346.158C623.831 346.833 623.955 347.416 624.204 347.907C624.458 348.399 624.816 348.777 625.278 349.044C625.739 349.31 626.287 349.443 626.92 349.443C627.34 349.443 627.725 349.384 628.074 349.266C628.423 349.147 628.722 348.97 628.971 348.733C629.22 348.496 629.409 348.206 629.539 347.863L633.037 348.094C632.859 348.934 632.495 349.668 631.945 350.295C631.4 350.917 630.696 351.402 629.832 351.751C628.974 352.095 627.983 352.266 626.858 352.266ZM641.746 352.266C640.349 352.266 639.148 351.97 638.142 351.379C637.141 350.781 636.372 349.952 635.833 348.893C635.301 347.833 635.034 346.614 635.034 345.235C635.034 343.838 635.304 342.613 635.842 341.56C636.387 340.5 637.159 339.675 638.159 339.083C639.16 338.485 640.349 338.186 641.728 338.186C642.918 338.186 643.96 338.402 644.853 338.834C645.747 339.266 646.454 339.873 646.975 340.654C647.496 341.435 647.783 342.353 647.836 343.406H644.267C644.167 342.726 643.9 342.178 643.468 341.764C643.042 341.344 642.483 341.134 641.791 341.134C641.205 341.134 640.693 341.293 640.255 341.613C639.823 341.927 639.485 342.385 639.243 342.989C639 343.593 638.879 344.324 638.879 345.182C638.879 346.052 638.997 346.792 639.234 347.401C639.476 348.011 639.817 348.475 640.255 348.795C640.693 349.115 641.205 349.275 641.791 349.275C642.223 349.275 642.61 349.186 642.954 349.008C643.303 348.831 643.59 348.573 643.815 348.236C644.045 347.893 644.196 347.481 644.267 347.002H647.836C647.777 348.043 647.493 348.961 646.984 349.754C646.481 350.541 645.786 351.157 644.898 351.6C644.01 352.044 642.959 352.266 641.746 352.266ZM656.472 352.266C655.07 352.266 653.862 351.982 652.85 351.414C651.844 350.84 651.069 350.029 650.524 348.982C649.98 347.928 649.707 346.682 649.707 345.244C649.707 343.841 649.98 342.61 650.524 341.551C651.069 340.491 651.835 339.666 652.823 339.074C653.818 338.482 654.984 338.186 656.321 338.186C657.221 338.186 658.058 338.331 658.834 338.621C659.615 338.905 660.296 339.334 660.876 339.908C661.462 340.482 661.917 341.205 662.243 342.075C662.568 342.939 662.731 343.951 662.731 345.111V346.15H651.217V343.806H659.171C659.171 343.261 659.053 342.779 658.816 342.359C658.579 341.938 658.251 341.61 657.831 341.373C657.416 341.131 656.934 341.009 656.383 341.009C655.809 341.009 655.3 341.142 654.856 341.409C654.419 341.669 654.075 342.021 653.827 342.465C653.578 342.903 653.451 343.391 653.445 343.93V346.158C653.445 346.833 653.569 347.416 653.818 347.907C654.072 348.399 654.43 348.777 654.892 349.044C655.354 349.31 655.901 349.443 656.534 349.443C656.955 349.443 657.339 349.384 657.689 349.266C658.038 349.147 658.337 348.97 658.585 348.733C658.834 348.496 659.023 348.206 659.153 347.863L662.651 348.094C662.474 348.934 662.11 349.668 661.559 350.295C661.015 350.917 660.31 351.402 659.446 351.751C658.588 352.095 657.597 352.266 656.472 352.266ZM665.199 352V338.364H668.981V352H665.199ZM667.099 336.606C666.537 336.606 666.054 336.419 665.652 336.047C665.255 335.668 665.057 335.215 665.057 334.688C665.057 334.167 665.255 333.721 665.652 333.348C666.054 332.969 666.537 332.779 667.099 332.779C667.661 332.779 668.141 332.969 668.537 333.348C668.94 333.721 669.141 334.167 669.141 334.688C669.141 335.215 668.94 335.668 668.537 336.047C668.141 336.419 667.661 336.606 667.099 336.606ZM684.724 338.364L679.956 352H675.695L670.928 338.364H674.923L677.755 348.12H677.897L680.72 338.364H684.724ZM692.434 352.266C691.031 352.266 689.824 351.982 688.812 351.414C687.806 350.84 687.031 350.029 686.486 348.982C685.942 347.928 685.669 346.682 685.669 345.244C685.669 343.841 685.942 342.61 686.486 341.551C687.031 340.491 687.797 339.666 688.785 339.074C689.78 338.482 690.946 338.186 692.283 338.186C693.183 338.186 694.02 338.331 694.796 338.621C695.577 338.905 696.258 339.334 696.838 339.908C697.424 340.482 697.879 341.205 698.205 342.075C698.53 342.939 698.693 343.951 698.693 345.111V346.15H687.178V343.806H695.133C695.133 343.261 695.015 342.779 694.778 342.359C694.541 341.938 694.213 341.61 693.792 341.373C693.378 341.131 692.896 341.009 692.345 341.009C691.771 341.009 691.262 341.142 690.818 341.409C690.38 341.669 690.037 342.021 689.789 342.465C689.54 342.903 689.413 343.391 689.407 343.93V346.158C689.407 346.833 689.531 347.416 689.78 347.907C690.034 348.399 690.392 348.777 690.854 349.044C691.316 349.31 691.863 349.443 692.496 349.443C692.917 349.443 693.301 349.384 693.65 349.266C694 349.147 694.299 348.97 694.547 348.733C694.796 348.496 694.985 348.206 695.115 347.863L698.613 348.094C698.436 348.934 698.072 349.668 697.521 350.295C696.977 350.917 696.272 351.402 695.408 351.751C694.55 352.095 693.559 352.266 692.434 352.266ZM718.249 333.818H722.093V345.626C722.093 346.951 721.776 348.112 721.143 349.106C720.516 350.1 719.637 350.875 718.506 351.432C717.376 351.982 716.059 352.257 714.556 352.257C713.046 352.257 711.726 351.982 710.596 351.432C709.466 350.875 708.587 350.1 707.959 349.106C707.332 348.112 707.018 346.951 707.018 345.626V333.818H710.862V345.297C710.862 345.99 711.013 346.605 711.315 347.144C711.623 347.682 712.055 348.106 712.611 348.413C713.168 348.721 713.816 348.875 714.556 348.875C715.301 348.875 715.949 348.721 716.5 348.413C717.056 348.106 717.485 347.682 717.787 347.144C718.095 346.605 718.249 345.99 718.249 345.297V333.818ZM725.256 352V333.818H732.429C733.802 333.818 734.974 334.064 735.944 334.555C736.921 335.04 737.664 335.73 738.173 336.624C738.688 337.511 738.945 338.556 738.945 339.757C738.945 340.965 738.685 342.004 738.164 342.874C737.643 343.738 736.888 344.401 735.9 344.862C734.918 345.324 733.728 345.555 732.331 345.555H727.528V342.465H731.71C732.444 342.465 733.053 342.365 733.539 342.163C734.024 341.962 734.385 341.66 734.622 341.258C734.864 340.855 734.986 340.355 734.986 339.757C734.986 339.154 734.864 338.645 734.622 338.23C734.385 337.816 734.021 337.502 733.53 337.289C733.044 337.07 732.432 336.961 731.692 336.961H729.1V352H725.256ZM735.074 343.726L739.593 352H735.35L730.928 343.726H735.074ZM741.662 352V333.818H745.506V348.831H753.301V352H741.662ZM637.718 382.266C636.339 382.266 635.146 381.973 634.14 381.387C633.14 380.796 632.367 379.973 631.823 378.919C631.278 377.86 631.006 376.632 631.006 375.235C631.006 373.826 631.278 372.595 631.823 371.542C632.367 370.482 633.14 369.66 634.14 369.074C635.146 368.482 636.339 368.186 637.718 368.186C639.097 368.186 640.286 368.482 641.287 369.074C642.293 369.66 643.068 370.482 643.613 371.542C644.157 372.595 644.429 373.826 644.429 375.235C644.429 376.632 644.157 377.86 643.613 378.919C643.068 379.973 642.293 380.796 641.287 381.387C640.286 381.973 639.097 382.266 637.718 382.266ZM637.736 379.337C638.363 379.337 638.887 379.159 639.307 378.804C639.727 378.443 640.044 377.952 640.257 377.33C640.476 376.709 640.585 376.002 640.585 375.208C640.585 374.415 640.476 373.708 640.257 373.087C640.044 372.465 639.727 371.974 639.307 371.613C638.887 371.252 638.363 371.071 637.736 371.071C637.102 371.071 636.57 371.252 636.138 371.613C635.711 371.974 635.389 372.465 635.17 373.087C634.957 373.708 634.85 374.415 634.85 375.208C634.85 376.002 634.957 376.709 635.17 377.33C635.389 377.952 635.711 378.443 636.138 378.804C636.57 379.159 637.102 379.337 637.736 379.337ZM650.671 374.116V382H646.889V368.364H650.493V370.77H650.653C650.955 369.976 651.461 369.349 652.171 368.887C652.881 368.42 653.742 368.186 654.754 368.186C655.701 368.186 656.527 368.393 657.231 368.808C657.936 369.222 658.483 369.814 658.874 370.583C659.264 371.347 659.46 372.258 659.46 373.317V382H655.678V373.992C655.684 373.158 655.471 372.507 655.038 372.039C654.606 371.566 654.012 371.329 653.254 371.329C652.745 371.329 652.295 371.438 651.905 371.657C651.52 371.876 651.218 372.196 650.999 372.616C650.786 373.03 650.677 373.531 650.671 374.116ZM668.298 382V363.818H680.549V366.988H672.142V371.32H679.919V374.489H672.142V378.831H680.584V382H668.298ZM683.534 382V368.364H687.139V370.77H687.298C687.582 369.971 688.056 369.34 688.719 368.879C689.382 368.417 690.175 368.186 691.098 368.186C692.033 368.186 692.829 368.42 693.486 368.887C694.143 369.349 694.581 369.976 694.8 370.77H694.942C695.22 369.988 695.723 369.364 696.451 368.896C697.185 368.423 698.052 368.186 699.053 368.186C700.325 368.186 701.358 368.592 702.151 369.402C702.95 370.207 703.349 371.35 703.349 372.829V382H699.576V373.575C699.576 372.817 699.375 372.249 698.973 371.87C698.57 371.492 698.067 371.302 697.463 371.302C696.777 371.302 696.241 371.521 695.857 371.959C695.472 372.391 695.28 372.962 695.28 373.673V382H691.613V373.495C691.613 372.826 691.421 372.294 691.036 371.897C690.657 371.5 690.157 371.302 689.536 371.302C689.115 371.302 688.737 371.409 688.399 371.622C688.068 371.829 687.804 372.122 687.609 372.501C687.414 372.874 687.316 373.312 687.316 373.815V382H683.534ZM710.225 382.257C709.355 382.257 708.58 382.107 707.899 381.805C707.219 381.497 706.68 381.044 706.284 380.446C705.893 379.843 705.698 379.091 705.698 378.191C705.698 377.434 705.837 376.798 706.115 376.283C706.393 375.768 706.772 375.353 707.251 375.04C707.731 374.726 708.275 374.489 708.885 374.33C709.5 374.17 710.145 374.057 710.82 373.992C711.613 373.909 712.252 373.832 712.738 373.761C713.223 373.684 713.575 373.572 713.794 373.424C714.013 373.276 714.123 373.057 714.123 372.767V372.714C714.123 372.152 713.945 371.717 713.59 371.409C713.241 371.101 712.744 370.947 712.099 370.947C711.418 370.947 710.876 371.098 710.474 371.4C710.071 371.696 709.805 372.069 709.675 372.518L706.177 372.234C706.355 371.406 706.704 370.69 707.225 370.086C707.745 369.476 708.417 369.009 709.24 368.683C710.069 368.352 711.027 368.186 712.116 368.186C712.874 368.186 713.599 368.275 714.291 368.452C714.99 368.63 715.608 368.905 716.147 369.278C716.691 369.651 717.12 370.13 717.434 370.716C717.748 371.296 717.905 371.992 717.905 372.803V382H714.318V380.109H714.212C713.993 380.535 713.7 380.911 713.333 381.237C712.966 381.556 712.525 381.808 712.01 381.991C711.495 382.169 710.9 382.257 710.225 382.257ZM711.308 379.647C711.865 379.647 712.356 379.538 712.782 379.319C713.208 379.094 713.543 378.792 713.785 378.413C714.028 378.035 714.149 377.605 714.149 377.126V375.679C714.031 375.756 713.868 375.827 713.661 375.892C713.46 375.951 713.232 376.007 712.977 376.061C712.723 376.108 712.468 376.152 712.214 376.194C711.96 376.229 711.729 376.262 711.522 376.292C711.078 376.357 710.69 376.46 710.359 376.602C710.027 376.744 709.77 376.937 709.586 377.179C709.403 377.416 709.311 377.712 709.311 378.067C709.311 378.582 709.497 378.976 709.87 379.248C710.249 379.514 710.728 379.647 711.308 379.647ZM720.839 382V368.364H724.621V382H720.839ZM722.739 366.606C722.176 366.606 721.694 366.419 721.292 366.047C720.895 365.668 720.697 365.215 720.697 364.688C720.697 364.167 720.895 363.721 721.292 363.348C721.694 362.969 722.176 362.779 722.739 362.779C723.301 362.779 723.78 362.969 724.177 363.348C724.579 363.721 724.781 364.167 724.781 364.688C724.781 365.215 724.579 365.668 724.177 366.047C723.78 366.419 723.301 366.606 722.739 366.606ZM731.432 363.818V382H727.65V363.818H731.432Z" fill="white"/>
<path d="M950.294 367H943.849V348.818H950.347C952.176 348.818 953.751 349.182 955.07 349.91C956.39 350.632 957.405 351.671 958.116 353.026C958.832 354.382 959.19 356.003 959.19 357.891C959.19 359.785 958.832 361.413 958.116 362.774C957.405 364.135 956.384 365.18 955.053 365.908C953.727 366.636 952.141 367 950.294 367ZM947.693 363.706H950.134C951.271 363.706 952.227 363.505 953.002 363.103C953.783 362.694 954.369 362.064 954.76 361.212C955.156 360.353 955.354 359.247 955.354 357.891C955.354 356.548 955.156 355.45 954.76 354.598C954.369 353.745 953.786 353.118 953.011 352.716C952.235 352.313 951.28 352.112 950.143 352.112H947.693V363.706ZM968.127 367.266C966.748 367.266 965.556 366.973 964.55 366.387C963.549 365.796 962.777 364.973 962.233 363.919C961.688 362.86 961.416 361.632 961.416 360.235C961.416 358.826 961.688 357.595 962.233 356.542C962.777 355.482 963.549 354.66 964.55 354.074C965.556 353.482 966.748 353.186 968.127 353.186C969.507 353.186 970.696 353.482 971.696 354.074C972.703 354.66 973.478 355.482 974.022 356.542C974.567 357.595 974.839 358.826 974.839 360.235C974.839 361.632 974.567 362.86 974.022 363.919C973.478 364.973 972.703 365.796 971.696 366.387C970.696 366.973 969.507 367.266 968.127 367.266ZM968.145 364.337C968.773 364.337 969.296 364.159 969.717 363.804C970.137 363.443 970.453 362.952 970.667 362.33C970.886 361.709 970.995 361.002 970.995 360.208C970.995 359.415 970.886 358.708 970.667 358.087C970.453 357.465 970.137 356.974 969.717 356.613C969.296 356.252 968.773 356.071 968.145 356.071C967.512 356.071 966.979 356.252 966.547 356.613C966.121 356.974 965.799 357.465 965.58 358.087C965.366 358.708 965.26 359.415 965.26 360.208C965.26 361.002 965.366 361.709 965.58 362.33C965.799 362.952 966.121 363.443 966.547 363.804C966.979 364.159 967.512 364.337 968.145 364.337ZM979.646 367L975.936 353.364H979.762L981.875 362.526H981.999L984.201 353.364H987.956L990.193 362.472H990.309L992.386 353.364H996.204L992.502 367H988.498L986.154 358.424H985.985L983.642 367H979.646ZM1002 359.116V367H998.221V353.364H1001.83V355.77H1001.99C1002.29 354.976 1002.79 354.349 1003.5 353.887C1004.21 353.42 1005.07 353.186 1006.09 353.186C1007.03 353.186 1007.86 353.393 1008.56 353.808C1009.27 354.222 1009.82 354.814 1010.21 355.583C1010.6 356.347 1010.79 357.258 1010.79 358.317V367H1007.01V358.992C1007.02 358.158 1006.8 357.507 1006.37 357.039C1005.94 356.566 1005.34 356.329 1004.59 356.329C1004.08 356.329 1003.63 356.438 1003.24 356.657C1002.85 356.876 1002.55 357.196 1002.33 357.616C1002.12 358.03 1002.01 358.531 1002 359.116ZM1017.55 348.818V367H1013.77V348.818H1017.55ZM1026.75 367.266C1025.37 367.266 1024.17 366.973 1023.17 366.387C1022.17 365.796 1021.4 364.973 1020.85 363.919C1020.31 362.86 1020.03 361.632 1020.03 360.235C1020.03 358.826 1020.31 357.595 1020.85 356.542C1021.4 355.482 1022.17 354.66 1023.17 354.074C1024.17 353.482 1025.37 353.186 1026.75 353.186C1028.12 353.186 1029.31 353.482 1030.31 354.074C1031.32 354.66 1032.1 355.482 1032.64 356.542C1033.19 357.595 1033.46 358.826 1033.46 360.235C1033.46 361.632 1033.19 362.86 1032.64 363.919C1032.1 364.973 1031.32 365.796 1030.31 366.387C1029.31 366.973 1028.12 367.266 1026.75 367.266ZM1026.76 364.337C1027.39 364.337 1027.91 364.159 1028.33 363.804C1028.76 363.443 1029.07 362.952 1029.28 362.33C1029.5 361.709 1029.61 361.002 1029.61 360.208C1029.61 359.415 1029.5 358.708 1029.28 358.087C1029.07 357.465 1028.76 356.974 1028.33 356.613C1027.91 356.252 1027.39 356.071 1026.76 356.071C1026.13 356.071 1025.6 356.252 1025.17 356.613C1024.74 356.974 1024.42 357.465 1024.2 358.087C1023.98 358.708 1023.88 359.415 1023.88 360.208C1023.88 361.002 1023.98 361.709 1024.2 362.33C1024.42 362.952 1024.74 363.443 1025.17 363.804C1025.6 364.159 1026.13 364.337 1026.76 364.337ZM1039.8 367.257C1038.93 367.257 1038.16 367.107 1037.48 366.805C1036.8 366.497 1036.26 366.044 1035.86 365.446C1035.47 364.843 1035.28 364.091 1035.28 363.191C1035.28 362.434 1035.42 361.798 1035.69 361.283C1035.97 360.768 1036.35 360.353 1036.83 360.04C1037.31 359.726 1037.85 359.489 1038.46 359.33C1039.08 359.17 1039.73 359.057 1040.4 358.992C1041.19 358.909 1041.83 358.832 1042.32 358.761C1042.8 358.684 1043.15 358.572 1043.37 358.424C1043.59 358.276 1043.7 358.057 1043.7 357.767V357.714C1043.7 357.152 1043.52 356.717 1043.17 356.409C1042.82 356.101 1042.32 355.947 1041.68 355.947C1041 355.947 1040.46 356.098 1040.05 356.4C1039.65 356.696 1039.38 357.069 1039.25 357.518L1035.76 357.234C1035.93 356.406 1036.28 355.69 1036.8 355.086C1037.33 354.476 1038 354.009 1038.82 353.683C1039.65 353.352 1040.61 353.186 1041.7 353.186C1042.45 353.186 1043.18 353.275 1043.87 353.452C1044.57 353.63 1045.19 353.905 1045.73 354.278C1046.27 354.651 1046.7 355.13 1047.01 355.716C1047.33 356.296 1047.48 356.992 1047.48 357.803V367H1043.9V365.109H1043.79C1043.57 365.535 1043.28 365.911 1042.91 366.237C1042.55 366.556 1042.1 366.808 1041.59 366.991C1041.07 367.169 1040.48 367.257 1039.8 367.257ZM1040.89 364.647C1041.44 364.647 1041.94 364.538 1042.36 364.319C1042.79 364.094 1043.12 363.792 1043.36 363.413C1043.61 363.035 1043.73 362.605 1043.73 362.126V360.679C1043.61 360.756 1043.45 360.827 1043.24 360.892C1043.04 360.951 1042.81 361.007 1042.56 361.061C1042.3 361.108 1042.05 361.152 1041.79 361.194C1041.54 361.229 1041.31 361.262 1041.1 361.292C1040.66 361.357 1040.27 361.46 1039.94 361.602C1039.61 361.744 1039.35 361.937 1039.17 362.179C1038.98 362.416 1038.89 362.712 1038.89 363.067C1038.89 363.582 1039.08 363.976 1039.45 364.248C1039.83 364.514 1040.31 364.647 1040.89 364.647ZM1055.44 367.222C1054.41 367.222 1053.47 366.956 1052.63 366.423C1051.79 365.884 1051.13 365.094 1050.64 364.053C1050.16 363.005 1049.91 361.721 1049.91 360.2C1049.91 358.637 1050.16 357.338 1050.67 356.302C1051.17 355.261 1051.84 354.482 1052.67 353.967C1053.51 353.446 1054.43 353.186 1055.43 353.186C1056.2 353.186 1056.83 353.316 1057.34 353.577C1057.86 353.831 1058.27 354.151 1058.59 354.536C1058.91 354.914 1059.15 355.287 1059.31 355.654H1059.43V348.818H1063.2V367H1059.47V364.816H1059.31C1059.14 365.195 1058.88 365.571 1058.56 365.944C1058.24 366.31 1057.82 366.615 1057.31 366.858C1056.8 367.101 1056.18 367.222 1055.44 367.222ZM1056.64 364.212C1057.25 364.212 1057.77 364.047 1058.19 363.715C1058.61 363.378 1058.94 362.907 1059.16 362.304C1059.39 361.7 1059.51 360.993 1059.51 360.182C1059.51 359.371 1059.4 358.667 1059.17 358.069C1058.95 357.471 1058.62 357.009 1058.2 356.684C1057.77 356.358 1057.25 356.196 1056.64 356.196C1056.02 356.196 1055.5 356.364 1055.07 356.702C1054.64 357.039 1054.32 357.507 1054.1 358.104C1053.88 358.702 1053.77 359.395 1053.77 360.182C1053.77 360.975 1053.88 361.676 1054.1 362.286C1054.33 362.89 1054.65 363.363 1055.07 363.706C1055.5 364.044 1056.02 364.212 1056.64 364.212ZM1075.99 367.257C1075.12 367.257 1074.34 367.107 1073.66 366.805C1072.98 366.497 1072.44 366.044 1072.04 365.446C1071.65 364.843 1071.46 364.091 1071.46 363.191C1071.46 362.434 1071.6 361.798 1071.88 361.283C1072.15 360.768 1072.53 360.353 1073.01 360.04C1073.49 359.726 1074.04 359.489 1074.65 359.33C1075.26 359.17 1075.91 359.057 1076.58 358.992C1077.37 358.909 1078.01 358.832 1078.5 358.761C1078.98 358.684 1079.34 358.572 1079.56 358.424C1079.77 358.276 1079.88 358.057 1079.88 357.767V357.714C1079.88 357.152 1079.71 356.717 1079.35 356.409C1079 356.101 1078.5 355.947 1077.86 355.947C1077.18 355.947 1076.64 356.098 1076.24 356.4C1075.83 356.696 1075.57 357.069 1075.44 357.518L1071.94 357.234C1072.12 356.406 1072.47 355.69 1072.99 355.086C1073.51 354.476 1074.18 354.009 1075 353.683C1075.83 353.352 1076.79 353.186 1077.88 353.186C1078.64 353.186 1079.36 353.275 1080.05 353.452C1080.75 353.63 1081.37 353.905 1081.91 354.278C1082.45 354.651 1082.88 355.13 1083.2 355.716C1083.51 356.296 1083.67 356.992 1083.67 357.803V367H1080.08V365.109H1079.97C1079.75 365.535 1079.46 365.911 1079.09 366.237C1078.73 366.556 1078.29 366.808 1077.77 366.991C1077.26 367.169 1076.66 367.257 1075.99 367.257ZM1077.07 364.647C1077.63 364.647 1078.12 364.538 1078.54 364.319C1078.97 364.094 1079.3 363.792 1079.55 363.413C1079.79 363.035 1079.91 362.605 1079.91 362.126V360.679C1079.79 360.756 1079.63 360.827 1079.42 360.892C1079.22 360.951 1078.99 361.007 1078.74 361.061C1078.48 361.108 1078.23 361.152 1077.98 361.194C1077.72 361.229 1077.49 361.262 1077.28 361.292C1076.84 361.357 1076.45 361.46 1076.12 361.602C1075.79 361.744 1075.53 361.937 1075.35 362.179C1075.16 362.416 1075.07 362.712 1075.07 363.067C1075.07 363.582 1075.26 363.976 1075.63 364.248C1076.01 364.514 1076.49 364.647 1077.07 364.647ZM1086.6 372.114V353.364H1090.33V355.654H1090.5C1090.66 355.287 1090.9 354.914 1091.22 354.536C1091.54 354.151 1091.95 353.831 1092.46 353.577C1092.97 353.316 1093.61 353.186 1094.38 353.186C1095.37 353.186 1096.29 353.446 1097.13 353.967C1097.97 354.482 1098.64 355.261 1099.14 356.302C1099.65 357.338 1099.9 358.637 1099.9 360.2C1099.9 361.721 1099.65 363.005 1099.16 364.053C1098.68 365.094 1098.01 365.884 1097.17 366.423C1096.34 366.956 1095.4 367.222 1094.37 367.222C1093.63 367.222 1093.01 367.101 1092.49 366.858C1091.99 366.615 1091.57 366.31 1091.24 365.944C1090.92 365.571 1090.67 365.195 1090.5 364.816H1090.38V372.114H1086.6ZM1090.3 360.182C1090.3 360.993 1090.41 361.7 1090.64 362.304C1090.86 362.907 1091.19 363.378 1091.62 363.715C1092.04 364.047 1092.56 364.212 1093.17 364.212C1093.79 364.212 1094.31 364.044 1094.73 363.706C1095.16 363.363 1095.48 362.89 1095.7 362.286C1095.92 361.676 1096.04 360.975 1096.04 360.182C1096.04 359.395 1095.93 358.702 1095.71 358.104C1095.49 357.507 1095.17 357.039 1094.74 356.702C1094.31 356.364 1093.79 356.196 1093.17 356.196C1092.55 356.196 1092.03 356.358 1091.61 356.684C1091.19 357.009 1090.86 357.471 1090.64 358.069C1090.41 358.667 1090.3 359.371 1090.3 360.182ZM1102.42 372.114V353.364H1106.15V355.654H1106.32C1106.48 355.287 1106.72 354.914 1107.04 354.536C1107.36 354.151 1107.77 353.831 1108.28 353.577C1108.79 353.316 1109.43 353.186 1110.2 353.186C1111.19 353.186 1112.11 353.446 1112.95 353.967C1113.79 354.482 1114.46 355.261 1114.96 356.302C1115.47 357.338 1115.72 358.637 1115.72 360.2C1115.72 361.721 1115.47 363.005 1114.98 364.053C1114.5 365.094 1113.83 365.884 1112.99 366.423C1112.16 366.956 1111.22 367.222 1110.19 367.222C1109.45 367.222 1108.83 367.101 1108.32 366.858C1107.81 366.615 1107.39 366.31 1107.06 365.944C1106.74 365.571 1106.49 365.195 1106.32 364.816H1106.2V372.114H1102.42ZM1106.12 360.182C1106.12 360.993 1106.23 361.7 1106.46 362.304C1106.68 362.907 1107.01 363.378 1107.44 363.715C1107.86 364.047 1108.38 364.212 1108.99 364.212C1109.61 364.212 1110.13 364.044 1110.55 363.706C1110.98 363.363 1111.3 362.89 1111.52 362.286C1111.75 361.676 1111.86 360.975 1111.86 360.182C1111.86 359.395 1111.75 358.702 1111.53 358.104C1111.31 357.507 1110.99 357.039 1110.56 356.702C1110.14 356.364 1109.61 356.196 1108.99 356.196C1108.37 356.196 1107.85 356.358 1107.43 356.684C1107.01 357.009 1106.68 357.471 1106.46 358.069C1106.23 358.667 1106.12 359.371 1106.12 360.182Z" fill="white"/>
<path d="M1334.53 357.909C1334.53 359.892 1334.16 361.579 1333.41 362.969C1332.66 364.36 1331.64 365.423 1330.35 366.157C1329.07 366.885 1327.63 367.249 1326.02 367.249C1324.41 367.249 1322.96 366.882 1321.67 366.148C1320.39 365.414 1319.37 364.351 1318.63 362.961C1317.88 361.57 1317.51 359.886 1317.51 357.909C1317.51 355.926 1317.88 354.24 1318.63 352.849C1319.37 351.458 1320.39 350.398 1321.67 349.67C1322.96 348.937 1324.41 348.57 1326.02 348.57C1327.63 348.57 1329.07 348.937 1330.35 349.67C1331.64 350.398 1332.66 351.458 1333.41 352.849C1334.16 354.24 1334.53 355.926 1334.53 357.909ZM1330.64 357.909C1330.64 356.625 1330.45 355.542 1330.06 354.66C1329.68 353.778 1329.15 353.109 1328.45 352.653C1327.76 352.198 1326.95 351.97 1326.02 351.97C1325.09 351.97 1324.28 352.198 1323.59 352.653C1322.9 353.109 1322.36 353.778 1321.97 354.66C1321.59 355.542 1321.4 356.625 1321.4 357.909C1321.4 359.193 1321.59 360.277 1321.97 361.158C1322.36 362.04 1322.9 362.709 1323.59 363.165C1324.28 363.621 1325.09 363.848 1326.02 363.848C1326.95 363.848 1327.76 363.621 1328.45 363.165C1329.15 362.709 1329.68 362.04 1330.06 361.158C1330.45 360.277 1330.64 359.193 1330.64 357.909ZM1341.09 359.116V367H1337.31V353.364H1340.92V355.77H1341.08C1341.38 354.976 1341.88 354.349 1342.59 353.887C1343.3 353.42 1344.17 353.186 1345.18 353.186C1346.12 353.186 1346.95 353.393 1347.65 353.808C1348.36 354.222 1348.91 354.814 1349.3 355.583C1349.69 356.347 1349.88 357.258 1349.88 358.317V367H1346.1V358.992C1346.11 358.158 1345.89 357.507 1345.46 357.039C1345.03 356.566 1344.43 356.329 1343.68 356.329C1343.17 356.329 1342.72 356.438 1342.33 356.657C1341.94 356.876 1341.64 357.196 1341.42 357.616C1341.21 358.03 1341.1 358.531 1341.09 359.116ZM1352.93 367V348.818H1356.72V355.654H1356.83C1357 355.287 1357.24 354.914 1357.55 354.536C1357.87 354.151 1358.28 353.831 1358.79 353.577C1359.31 353.316 1359.95 353.186 1360.71 353.186C1361.71 353.186 1362.62 353.446 1363.46 353.967C1364.3 354.482 1364.98 355.261 1365.48 356.302C1365.98 357.338 1366.23 358.637 1366.23 360.2C1366.23 361.721 1365.99 363.005 1365.5 364.053C1365.01 365.094 1364.35 365.884 1363.51 366.423C1362.67 366.956 1361.74 367.222 1360.7 367.222C1359.97 367.222 1359.34 367.101 1358.83 366.858C1358.32 366.615 1357.9 366.31 1357.58 365.944C1357.25 365.571 1357 365.195 1356.83 364.816H1356.66V367H1352.93ZM1356.64 360.182C1356.64 360.993 1356.75 361.7 1356.97 362.304C1357.2 362.907 1357.52 363.378 1357.95 363.715C1358.38 364.047 1358.89 364.212 1359.5 364.212C1360.12 364.212 1360.64 364.044 1361.07 363.706C1361.49 363.363 1361.82 362.89 1362.03 362.286C1362.26 361.676 1362.37 360.975 1362.37 360.182C1362.37 359.395 1362.26 358.702 1362.04 358.104C1361.82 357.507 1361.5 357.039 1361.08 356.702C1360.65 356.364 1360.13 356.196 1359.5 356.196C1358.89 356.196 1358.37 356.358 1357.94 356.684C1357.52 357.009 1357.2 357.471 1356.97 358.069C1356.75 358.667 1356.64 359.371 1356.64 360.182ZM1374.92 367.266C1373.54 367.266 1372.35 366.973 1371.34 366.387C1370.34 365.796 1369.57 364.973 1369.02 363.919C1368.48 362.86 1368.21 361.632 1368.21 360.235C1368.21 358.826 1368.48 357.595 1369.02 356.542C1369.57 355.482 1370.34 354.66 1371.34 354.074C1372.35 353.482 1373.54 353.186 1374.92 353.186C1376.3 353.186 1377.49 353.482 1378.49 354.074C1379.49 354.66 1380.27 355.482 1380.81 356.542C1381.36 357.595 1381.63 358.826 1381.63 360.235C1381.63 361.632 1381.36 362.86 1380.81 363.919C1380.27 364.973 1379.49 365.796 1378.49 366.387C1377.49 366.973 1376.3 367.266 1374.92 367.266ZM1374.94 364.337C1375.56 364.337 1376.09 364.159 1376.51 363.804C1376.93 363.443 1377.24 362.952 1377.46 362.33C1377.68 361.709 1377.79 361.002 1377.79 360.208C1377.79 359.415 1377.68 358.708 1377.46 358.087C1377.24 357.465 1376.93 356.974 1376.51 356.613C1376.09 356.252 1375.56 356.071 1374.94 356.071C1374.3 356.071 1373.77 356.252 1373.34 356.613C1372.91 356.974 1372.59 357.465 1372.37 358.087C1372.16 358.708 1372.05 359.415 1372.05 360.208C1372.05 361.002 1372.16 361.709 1372.37 362.33C1372.59 362.952 1372.91 363.443 1373.34 363.804C1373.77 364.159 1374.3 364.337 1374.94 364.337ZM1387.98 367.257C1387.11 367.257 1386.33 367.107 1385.65 366.805C1384.97 366.497 1384.43 366.044 1384.04 365.446C1383.64 364.843 1383.45 364.091 1383.45 363.191C1383.45 362.434 1383.59 361.798 1383.87 361.283C1384.15 360.768 1384.52 360.353 1385 360.04C1385.48 359.726 1386.03 359.489 1386.64 359.33C1387.25 359.17 1387.9 359.057 1388.57 358.992C1389.37 358.909 1390 358.832 1390.49 358.761C1390.98 358.684 1391.33 358.572 1391.55 358.424C1391.77 358.276 1391.87 358.057 1391.87 357.767V357.714C1391.87 357.152 1391.7 356.717 1391.34 356.409C1390.99 356.101 1390.5 355.947 1389.85 355.947C1389.17 355.947 1388.63 356.098 1388.23 356.4C1387.82 356.696 1387.56 357.069 1387.43 357.518L1383.93 357.234C1384.11 356.406 1384.46 355.69 1384.98 355.086C1385.5 354.476 1386.17 354.009 1386.99 353.683C1387.82 353.352 1388.78 353.186 1389.87 353.186C1390.63 353.186 1391.35 353.275 1392.04 353.452C1392.74 353.63 1393.36 353.905 1393.9 354.278C1394.44 354.651 1394.87 355.13 1395.19 355.716C1395.5 356.296 1395.66 356.992 1395.66 357.803V367H1392.07V365.109H1391.96C1391.74 365.535 1391.45 365.911 1391.08 366.237C1390.72 366.556 1390.28 366.808 1389.76 366.991C1389.25 367.169 1388.65 367.257 1387.98 367.257ZM1389.06 364.647C1389.62 364.647 1390.11 364.538 1390.53 364.319C1390.96 364.094 1391.29 363.792 1391.54 363.413C1391.78 363.035 1391.9 362.605 1391.9 362.126V360.679C1391.78 360.756 1391.62 360.827 1391.41 360.892C1391.21 360.951 1390.98 361.007 1390.73 361.061C1390.47 361.108 1390.22 361.152 1389.97 361.194C1389.71 361.229 1389.48 361.262 1389.27 361.292C1388.83 361.357 1388.44 361.46 1388.11 361.602C1387.78 361.744 1387.52 361.937 1387.34 362.179C1387.15 362.416 1387.06 362.712 1387.06 363.067C1387.06 363.582 1387.25 363.976 1387.62 364.248C1388 364.514 1388.48 364.647 1389.06 364.647ZM1398.59 367V353.364H1402.26V355.743H1402.4C1402.65 354.897 1403.07 354.257 1403.65 353.825C1404.24 353.387 1404.91 353.168 1405.68 353.168C1405.86 353.168 1406.07 353.18 1406.29 353.204C1406.51 353.228 1406.7 353.26 1406.86 353.301V356.657C1406.69 356.604 1406.44 356.557 1406.13 356.515C1405.81 356.474 1405.53 356.453 1405.27 356.453C1404.71 356.453 1404.21 356.574 1403.78 356.817C1403.34 357.054 1403 357.385 1402.75 357.811C1402.5 358.238 1402.37 358.729 1402.37 359.285V367H1398.59ZM1413.21 367.222C1412.17 367.222 1411.24 366.956 1410.4 366.423C1409.56 365.884 1408.9 365.094 1408.41 364.053C1407.92 363.005 1407.68 361.721 1407.68 360.2C1407.68 358.637 1407.93 357.338 1408.43 356.302C1408.94 355.261 1409.61 354.482 1410.44 353.967C1411.28 353.446 1412.2 353.186 1413.2 353.186C1413.96 353.186 1414.6 353.316 1415.11 353.577C1415.63 353.831 1416.04 354.151 1416.35 354.536C1416.67 354.914 1416.92 355.287 1417.08 355.654H1417.2V348.818H1420.97V367H1417.24V364.816H1417.08C1416.9 365.195 1416.65 365.571 1416.33 365.944C1416.01 366.31 1415.59 366.615 1415.07 366.858C1414.57 367.101 1413.94 367.222 1413.21 367.222ZM1414.41 364.212C1415.02 364.212 1415.53 364.047 1415.95 363.715C1416.38 363.378 1416.71 362.907 1416.93 362.304C1417.16 361.7 1417.28 360.993 1417.28 360.182C1417.28 359.371 1417.16 358.667 1416.94 358.069C1416.71 357.471 1416.39 357.009 1415.96 356.684C1415.54 356.358 1415.02 356.196 1414.41 356.196C1413.79 356.196 1413.26 356.364 1412.84 356.702C1412.41 357.039 1412.09 357.507 1411.87 358.104C1411.65 358.702 1411.54 359.395 1411.54 360.182C1411.54 360.975 1411.65 361.676 1411.87 362.286C1412.09 362.89 1412.42 363.363 1412.84 363.706C1413.26 364.044 1413.79 364.212 1414.41 364.212ZM1424.08 367V353.364H1427.86V367H1424.08ZM1425.98 351.606C1425.42 351.606 1424.93 351.419 1424.53 351.047C1424.14 350.668 1423.94 350.215 1423.94 349.688C1423.94 349.167 1424.14 348.721 1424.53 348.348C1424.93 347.969 1425.42 347.779 1425.98 347.779C1426.54 347.779 1427.02 347.969 1427.42 348.348C1427.82 348.721 1428.02 349.167 1428.02 349.688C1428.02 350.215 1427.82 350.668 1427.42 351.047C1427.02 351.419 1426.54 351.606 1425.98 351.606ZM1434.67 359.116V367H1430.89V353.364H1434.49V355.77H1434.65C1434.96 354.976 1435.46 354.349 1436.17 353.887C1436.88 353.42 1437.74 353.186 1438.76 353.186C1439.7 353.186 1440.53 353.393 1441.23 353.808C1441.94 354.222 1442.49 354.814 1442.88 355.583C1443.27 356.347 1443.46 357.258 1443.46 358.317V367H1439.68V358.992C1439.69 358.158 1439.47 357.507 1439.04 357.039C1438.61 356.566 1438.01 356.329 1437.26 356.329C1436.75 356.329 1436.3 356.438 1435.91 356.657C1435.52 356.876 1435.22 357.196 1435 357.616C1434.79 358.03 1434.68 358.531 1434.67 359.116ZM1452.59 372.398C1451.36 372.398 1450.31 372.229 1449.43 371.892C1448.56 371.56 1447.87 371.107 1447.36 370.533C1446.84 369.959 1446.51 369.314 1446.35 368.598L1449.85 368.127C1449.96 368.4 1450.13 368.654 1450.36 368.891C1450.59 369.128 1450.89 369.317 1451.27 369.459C1451.66 369.607 1452.12 369.681 1452.67 369.681C1453.5 369.681 1454.17 369.48 1454.71 369.077C1455.25 368.681 1455.52 368.015 1455.52 367.08V364.585H1455.36C1455.19 364.964 1454.94 365.322 1454.61 365.659C1454.28 365.997 1453.85 366.272 1453.33 366.485C1452.81 366.698 1452.19 366.805 1451.47 366.805C1450.44 366.805 1449.51 366.568 1448.67 366.094C1447.84 365.615 1447.17 364.884 1446.67 363.902C1446.18 362.913 1445.94 361.664 1445.94 360.155C1445.94 358.61 1446.19 357.32 1446.69 356.284C1447.19 355.249 1447.86 354.473 1448.7 353.958C1449.54 353.444 1450.46 353.186 1451.46 353.186C1452.22 353.186 1452.86 353.316 1453.38 353.577C1453.89 353.831 1454.31 354.151 1454.62 354.536C1454.94 354.914 1455.18 355.287 1455.36 355.654H1455.5V353.364H1459.25V367.133C1459.25 368.293 1458.97 369.264 1458.4 370.045C1457.83 370.826 1457.05 371.412 1456.04 371.803C1455.04 372.199 1453.89 372.398 1452.59 372.398ZM1452.67 363.964C1453.28 363.964 1453.79 363.813 1454.21 363.511C1454.64 363.203 1454.96 362.765 1455.19 362.197C1455.42 361.623 1455.53 360.936 1455.53 360.137C1455.53 359.338 1455.42 358.646 1455.2 358.06C1454.97 357.468 1454.65 357.009 1454.22 356.684C1453.79 356.358 1453.28 356.196 1452.67 356.196C1452.04 356.196 1451.52 356.364 1451.09 356.702C1450.67 357.033 1450.35 357.495 1450.13 358.087C1449.91 358.679 1449.8 359.362 1449.8 360.137C1449.8 360.925 1449.91 361.605 1450.13 362.179C1450.35 362.748 1450.67 363.188 1451.09 363.502C1451.52 363.81 1452.04 363.964 1452.67 363.964Z" fill="white"/>
<path d="M492 366C491.448 366 491 366.448 491 367C491 367.552 491.448 368 492 368V366ZM524.707 367.707C525.098 367.317 525.098 366.683 524.707 366.293L518.343 359.929C517.953 359.538 517.319 359.538 516.929 359.929C516.538 360.319 516.538 360.953 516.929 361.343L522.586 367L516.929 372.657C516.538 373.047 516.538 373.681 516.929 374.071C517.319 374.462 517.953 374.462 518.343 374.071L524.707 367.707ZM492 368H524V366H492V368Z" fill="#F29100"/>
<path d="M840 366C839.448 366 839 366.448 839 367C839 367.552 839.448 368 840 368V366ZM872.707 367.707C873.098 367.317 873.098 366.683 872.707 366.293L866.343 359.929C865.953 359.538 865.319 359.538 864.929 359.929C864.538 360.319 864.538 360.953 864.929 361.343L870.586 367L864.929 372.657C864.538 373.047 864.538 373.681 864.929 374.071C865.319 374.462 865.953 374.462 866.343 374.071L872.707 367.707ZM840 368H872V366H840V368Z" fill="#F29100"/>
<path d="M1188 366C1187.45 366 1187 366.448 1187 367C1187 367.552 1187.45 368 1188 368V366ZM1220.71 367.707C1221.1 367.317 1221.1 366.683 1220.71 366.293L1214.34 359.929C1213.95 359.538 1213.32 359.538 1212.93 359.929C1212.54 360.319 1212.54 360.953 1212.93 361.343L1218.59 367L1212.93 372.657C1212.54 373.047 1212.54 373.681 1212.93 374.071C1213.32 374.462 1213.95 374.462 1214.34 374.071L1220.71 367.707ZM1188 368H1220V366H1188V368Z" fill="#F29100"/>
</svg>
