<svg width="418" height="159" viewBox="0 0 418 159" fill="none" xmlns="http://www.w3.org/2000/svg">
<path d="M0 12C0 5.37258 5.37258 0 12 0H406C412.627 0 418 5.37258 418 12V159H0V12Z" fill="#2E4B99"/>
<rect x="59" y="60.8289" width="106.306" height="42.3423" rx="9.00901" fill="white"/>
<g clip-path="url(#clip0_133_998)">
<path fill-rule="evenodd" clip-rule="evenodd" d="M89.5565 86.7232L89.1966 86.8715L90.0171 87.3123L91.1659 87.8081L92.2601 88.0834L93.5183 88.1936L95.3234 87.9733C95.3234 87.9733 95.1047 88.0284 97.1289 87.8081C97.4759 87.7703 97.6894 87.7487 97.8107 87.7372C97.8798 87.7327 97.9337 87.7275 97.9434 87.7261C97.953 87.7247 97.9185 87.7269 97.8107 87.7372C97.5736 87.7526 97.1582 87.7605 97.7305 87.5876C98.8246 87.2572 98.8246 87.0367 98.8246 87.0367L98.887 86.7231L108.514 86.723C126.616 86.7227 145.835 86.7224 150.301 86.7224C151.018 86.7224 151.599 87.3075 151.599 88.0293C151.599 88.7511 151.018 89.3362 150.301 89.3362C145.835 89.3362 126.616 89.3365 108.514 89.3367L73.4272 89.3372C73.4266 89.3372 73.4264 89.3372 73.4264 88.0304C73.4263 86.7235 73.4266 86.7235 73.4271 86.7235L89.5565 86.7232ZM73.4264 88.0304L73.4263 86.7235C72.7096 86.7235 72.1285 87.3086 72.1285 88.0304C72.1286 88.7521 72.7096 89.3372 73.4264 89.3372L73.4264 88.0304Z" fill="#F29100"/>
<path d="M119.604 73.9234C119.593 73.5037 119.811 73.2313 120.1 73.104C120.086 73.0655 120.076 73.0273 120.066 72.9894C116.115 72.5655 114.301 75.6717 114.301 78.3418C114.301 79.1706 114.968 79.8427 115.791 79.8427C116.614 79.8427 117.281 79.1706 117.281 78.3418C117.28 77.9466 117.489 76.3922 118.653 76.0326C118.947 75.9428 119.276 75.9248 119.612 75.9517C119.635 75.2775 119.622 74.6007 119.604 73.9234Z" fill="#2E4B99"/>
<path d="M118.416 74.4786C118.416 73.6497 119.083 72.9777 119.906 72.9777C120.73 72.9777 121.397 73.6497 121.397 74.4786C121.397 75.3074 120.73 75.9795 119.906 75.9795C119.083 75.9795 118.416 75.3074 118.416 74.4786Z" fill="#2E4B99"/>
<path d="M117.262 83.8075V74.6552V74.3786C117.262 74.0377 117.157 73.7223 116.978 73.4663C116.707 73.0771 116.268 72.8242 115.771 72.8242C114.948 72.8242 114.281 73.52 114.281 74.3786V78.1026V83.8075H117.262Z" fill="#2E4B99"/>
<path d="M114.281 84.001C114.278 83.1721 114.943 82.4977 115.766 82.4945C116.589 82.4916 117.259 83.1611 117.262 83.9899C117.265 84.8187 116.6 85.4932 115.777 85.4963C114.954 85.4993 114.284 84.8298 114.281 84.001Z" fill="#2E4B99"/>
<path d="M80.4041 77.0328C78.2284 75.0632 74.6265 76.5412 74.6249 79.4637H71.6128C71.6117 73.9011 78.3215 71.0692 82.4182 74.7773L80.4041 77.0328Z" fill="#2E4B99"/>
<path d="M80.3575 81.9359C80.0543 82.2004 79.7019 82.4141 79.3149 82.5614C78.9277 82.7086 78.507 82.79 78.0599 82.79C77.5758 82.79 77.1227 82.6947 76.7099 82.5237C76.0914 82.2676 75.5657 81.8379 75.2002 81.3068C75.0171 81.0409 74.8734 80.7506 74.7756 80.4421C74.6778 80.1336 74.6252 79.8072 74.6249 79.4636H71.6127C71.6125 80.343 71.7956 81.1887 72.1258 81.953C72.6213 83.1007 73.4421 84.0662 74.4698 84.7467C74.9836 85.0871 75.55 85.3564 76.1542 85.5405C76.7577 85.7247 77.399 85.8232 78.0591 85.8232H78.0599C78.8733 85.8235 79.6582 85.6733 80.3798 85.3988C81.1014 85.124 81.7604 84.7254 82.3303 84.228L80.3575 81.9359Z" fill="#2E4B99"/>
<path d="M73.1188 77.9471C72.2871 77.9471 71.6126 78.6261 71.6126 79.4639C71.6126 80.3014 72.2871 80.9803 73.1188 80.9803C73.9506 80.9803 74.6248 80.3014 74.6248 79.4639C74.625 78.6261 73.9506 77.9471 73.1188 77.9471Z" fill="#2E4B99"/>
<path d="M79.8379 83.0784C79.8379 82.2408 80.5121 81.5616 81.3441 81.5616C82.1758 81.5616 82.8501 82.2408 82.8501 83.0784C82.8501 83.9159 82.1758 84.5951 81.3441 84.5951C80.5121 84.5951 79.8379 83.9159 79.8379 83.0784Z" fill="#2E4B99"/>
<path d="M79.905 75.905C79.905 75.0675 80.5792 74.3883 81.4112 74.3883C82.243 74.3883 82.9172 75.0675 82.9172 75.905C82.9172 76.7426 82.243 77.4218 81.4112 77.4218C80.5792 77.4218 79.905 76.7426 79.905 75.905Z" fill="#2E4B99"/>
<path d="M101.853 79.5157C101.853 80.05 101.609 80.5271 101.227 80.8404C100.936 81.0799 100.563 81.2234 100.157 81.2234C99.2206 81.2234 98.4612 80.4589 98.4612 79.5157C98.4612 78.5725 99.2206 77.808 100.157 77.808C100.626 77.808 101.05 77.9992 101.357 78.3083C101.663 78.6173 101.853 79.0441 101.853 79.5157Z" fill="#009540"/>
<path d="M128.894 79.1457C128.894 80.0889 128.135 80.8535 127.198 80.8535C126.262 80.8535 125.503 80.0889 125.503 79.1457C125.503 78.2025 126.262 77.438 127.198 77.438C128.135 77.438 128.894 78.2025 128.894 79.1457Z" fill="#E20613"/>
<path d="M88.2193 83.0816C89.2585 83.2884 90.2142 83.0976 91.0873 82.5091C91.9596 81.9202 92.4991 81.1027 92.7045 80.0563C92.8534 79.2983 92.7806 78.5619 92.4865 77.8474C92.1922 77.1327 91.7249 76.5586 91.0839 76.1244C90.4432 75.6908 89.7344 75.4747 88.9584 75.4763C88.1824 75.4782 87.4757 75.6937 86.8395 76.1231C86.2026 76.5526 85.7356 77.1285 85.4389 77.8504C85.142 78.5725 85.0682 79.311 85.2181 80.0655C85.317 80.5727 85.5085 81.0358 85.7924 81.4547C86.076 81.8739 86.4261 82.2248 86.8426 82.5075C87.2586 82.7904 87.7175 82.9817 88.2193 83.0816ZM86.9355 73.3581C87.9815 72.9917 89.0605 72.9187 90.1713 73.14C91.2822 73.361 92.255 73.8424 93.0904 74.5835C93.925 75.3248 94.5215 76.2217 94.8799 77.2739C95.2378 78.3267 95.3072 79.4121 95.0876 80.5308C94.8679 81.6494 94.393 82.63 93.6631 83.4717C92.9326 84.3137 92.0423 84.9144 90.9913 85.2741C89.9398 85.6334 88.859 85.7024 87.7481 85.4814C86.6372 85.2601 85.6663 84.7827 84.8364 84.0484C84.006 83.3145 83.4095 82.4179 83.0466 81.358C82.6837 80.2987 82.6123 79.2093 82.8318 78.0906C83.0515 76.972 83.5285 75.9954 84.2637 75.1602C84.9983 74.3256 85.889 73.7249 86.9355 73.3581Z" fill="#2E4B99"/>
<path d="M88.2193 83.0816C89.2585 83.2884 90.2142 83.0976 91.0873 82.5091C91.9596 81.9202 92.4991 81.1027 92.7045 80.0563C92.8534 79.2983 92.7806 78.5619 92.4865 77.8474C92.1922 77.1327 91.7249 76.5586 91.0839 76.1244C90.4432 75.6908 89.7344 75.4747 88.9584 75.4763C88.1824 75.4782 87.4757 75.6937 86.8395 76.1231C86.2026 76.5526 85.7356 77.1285 85.4389 77.8504C85.142 78.5725 85.0682 79.311 85.2181 80.0655C85.317 80.5727 85.5085 81.0358 85.7924 81.4547C86.076 81.8739 86.4261 82.2248 86.8426 82.5075C87.2586 82.7904 87.7175 82.9817 88.2193 83.0816ZM86.9355 73.3581C87.9815 72.9917 89.0605 72.9187 90.1713 73.14C91.2822 73.361 92.255 73.8424 93.0904 74.5835C93.925 75.3248 94.5215 76.2217 94.8799 77.2739C95.2378 78.3267 95.3072 79.4121 95.0876 80.5308C94.8679 81.6494 94.393 82.63 93.6631 83.4717C92.9326 84.3137 92.0423 84.9144 90.9913 85.2741C89.9398 85.6334 88.859 85.7024 87.7481 85.4814C86.6372 85.2601 85.6663 84.7827 84.8364 84.0484C84.006 83.3145 83.4095 82.4179 83.0466 81.358C82.6837 80.2987 82.6123 79.2093 82.8318 78.0906C83.0515 76.972 83.5285 75.9954 84.2637 75.1602C84.9983 74.3256 85.889 73.7249 86.9355 73.3581Z" stroke="#2E4B99" stroke-width="0.443101" stroke-miterlimit="10"/>
<path d="M99.4164 83.1549C100.455 83.3618 101.411 83.171 102.284 82.5824C103.157 81.9936 103.696 81.1761 103.902 80.1296C104.05 79.3717 103.978 78.6353 103.684 77.9208C103.389 77.206 102.922 76.632 102.281 76.1981C101.64 75.7642 100.931 75.5481 100.155 75.5497C99.3794 75.5515 98.6727 75.7673 98.0365 76.1965C97.3997 76.6259 96.9327 77.2018 96.6359 77.9237C96.3388 78.6458 96.2652 79.3843 96.415 80.1389C96.514 80.646 96.7055 81.1092 96.9894 81.5281C97.2731 81.9472 97.6231 82.2982 98.0395 82.5809C98.4556 82.8638 98.9145 83.0551 99.4164 83.1549ZM98.1326 73.4315C99.1784 73.065 100.257 72.9921 101.368 73.2134C102.479 73.4344 103.452 73.9157 104.287 74.6568C105.122 75.3982 105.719 76.295 106.077 77.3473C106.435 78.4001 106.504 79.4855 106.285 80.6041C106.065 81.7228 105.59 82.7034 104.86 83.5451C104.13 84.3871 103.239 84.9878 102.188 85.3474C101.137 85.7068 100.056 85.7758 98.9452 85.5547C97.8341 85.3335 96.8633 84.8561 96.0334 84.1218C95.203 83.3878 94.6065 82.4913 94.2436 81.4314C93.8807 80.372 93.8093 79.2826 94.0288 78.164C94.2486 77.0454 94.7255 76.0687 95.4606 75.2335C96.1954 74.3989 97.0858 73.7982 98.1326 73.4315Z" fill="#2E4B99"/>
<path d="M99.4164 83.1549C100.455 83.3618 101.411 83.171 102.284 82.5824C103.157 81.9936 103.696 81.1761 103.902 80.1296C104.05 79.3717 103.978 78.6353 103.684 77.9208C103.389 77.206 102.922 76.632 102.281 76.1981C101.64 75.7642 100.931 75.5481 100.155 75.5497C99.3794 75.5515 98.6727 75.7673 98.0365 76.1965C97.3997 76.6259 96.9327 77.2019 96.6359 77.9237C96.3388 78.6458 96.2652 79.3843 96.415 80.1389C96.514 80.646 96.7055 81.1092 96.9894 81.5281C97.2731 81.9472 97.6231 82.2982 98.0395 82.5809C98.4556 82.8638 98.9145 83.0551 99.4164 83.1549ZM98.1326 73.4315C99.1784 73.065 100.257 72.9921 101.368 73.2134C102.479 73.4344 103.452 73.9157 104.287 74.6568C105.122 75.3982 105.719 76.295 106.077 77.3473C106.435 78.4001 106.504 79.4855 106.285 80.6041C106.065 81.7228 105.59 82.7034 104.86 83.5451C104.13 84.3871 103.239 84.9878 102.188 85.3474C101.137 85.7068 100.056 85.7758 98.9452 85.5547C97.8341 85.3335 96.8633 84.8561 96.0334 84.1218C95.203 83.3878 94.6065 82.4913 94.2436 81.4314C93.8807 80.372 93.8093 79.2826 94.0288 78.164C94.2486 77.0454 94.7255 76.0687 95.4606 75.2335C96.1954 74.3989 97.0858 73.7982 98.1326 73.4315Z" stroke="#2E4B99" stroke-width="0.442944" stroke-miterlimit="10"/>
<path d="M126.45 82.8413C127.49 83.0481 128.445 82.8574 129.318 82.2688C130.191 81.68 130.73 80.8625 130.936 79.816C131.084 79.0581 131.012 78.3217 130.718 77.6072C130.423 76.8925 129.956 76.3184 129.315 75.8842C128.674 75.4506 127.966 75.2345 127.19 75.2361C126.414 75.238 125.707 75.4535 125.071 75.8829C124.434 76.3123 123.967 76.8882 123.67 77.6101C123.373 78.3323 123.299 79.0707 123.449 79.8253C123.548 80.3324 123.74 80.7956 124.023 81.2145C124.307 81.6336 124.657 81.9846 125.074 82.2673C125.49 82.5502 125.949 82.7415 126.45 82.8413ZM125.167 73.1179C126.213 72.7514 127.292 72.6785 128.402 72.8998C129.513 73.1208 130.486 73.6021 131.322 74.3432C132.156 75.0846 132.753 75.9814 133.111 77.0337C133.469 78.0864 133.538 79.1719 133.319 80.2905C133.099 81.4092 132.624 82.3898 131.894 83.2315C131.164 84.0735 130.273 84.6742 129.223 85.0338C128.171 85.3932 127.09 85.4622 125.979 85.2412C124.868 85.0198 123.898 84.5425 123.068 83.8082C122.237 83.0742 121.641 82.1777 121.278 81.1178C120.915 80.0584 120.843 78.969 121.063 77.8504C121.283 76.7317 121.76 75.7551 122.495 74.92C123.23 74.0853 124.12 73.4846 125.167 73.1179Z" fill="#2E4B99"/>
<path d="M126.45 82.8413C127.49 83.0481 128.445 82.8574 129.318 82.2688C130.191 81.68 130.73 80.8625 130.936 79.816C131.084 79.0581 131.012 78.3217 130.718 77.6072C130.423 76.8925 129.956 76.3184 129.315 75.8842C128.674 75.4506 127.966 75.2345 127.19 75.2361C126.414 75.238 125.707 75.4535 125.071 75.8829C124.434 76.3123 123.967 76.8882 123.67 77.6101C123.373 78.3323 123.299 79.0707 123.449 79.8253C123.548 80.3324 123.74 80.7956 124.023 81.2145C124.307 81.6336 124.657 81.9846 125.074 82.2673C125.49 82.5502 125.949 82.7415 126.45 82.8413ZM125.167 73.1179C126.213 72.7514 127.292 72.6785 128.402 72.8998C129.513 73.1208 130.486 73.6021 131.322 74.3432C132.156 75.0846 132.753 75.9814 133.111 77.0337C133.469 78.0864 133.538 79.1719 133.319 80.2905C133.099 81.4092 132.624 82.3898 131.894 83.2315C131.164 84.0735 130.273 84.6742 129.223 85.0338C128.171 85.3932 127.09 85.4622 125.979 85.2412C124.868 85.0198 123.898 84.5425 123.068 83.8082C122.237 83.0742 121.641 82.1777 121.278 81.1178C120.915 80.0584 120.843 78.969 121.063 77.8504C121.283 76.7317 121.76 75.7551 122.495 74.92C123.23 74.0853 124.12 73.4846 125.167 73.1179Z" stroke="#2E4B99" stroke-width="0.442944" stroke-miterlimit="10"/>
<path d="M137.647 82.9147C138.687 83.1215 139.642 82.9308 140.515 82.3422C141.388 81.7534 141.927 80.9359 142.132 79.8894C142.281 79.1314 142.209 78.3951 141.915 77.6806C141.62 76.9658 141.153 76.3917 140.512 75.9578C139.871 75.5239 139.162 75.3079 138.386 75.3095C137.61 75.3113 136.904 75.5271 136.268 75.9563C135.631 76.3857 135.164 76.9616 134.867 77.6835C134.57 78.4056 134.496 79.1441 134.646 79.8986C134.745 80.4058 134.937 80.8689 135.221 81.2878C135.504 81.707 135.854 82.0579 136.271 82.3406C136.687 82.6236 137.146 82.8148 137.647 82.9147ZM136.363 73.1913C137.41 72.8248 138.488 72.7518 139.599 72.9731C140.71 73.1942 141.683 73.6755 142.518 74.4166C143.353 75.158 143.95 76.0548 144.308 77.107C144.666 78.1598 144.735 79.2453 144.516 80.3639C144.296 81.4825 143.821 82.4631 143.091 83.3049C142.361 84.1469 141.47 84.7476 140.419 85.1072C139.368 85.4665 138.287 85.5356 137.176 85.3145C136.065 85.0932 135.094 84.6158 134.264 83.8816C133.434 83.1476 132.837 82.251 132.474 81.1912C132.112 80.1318 132.04 79.0424 132.26 77.9237C132.48 76.8051 132.957 75.8285 133.692 74.9933C134.426 74.1587 135.317 73.558 136.363 73.1913Z" fill="#2E4B99"/>
<path d="M137.647 82.9147C138.687 83.1215 139.642 82.9308 140.515 82.3422C141.388 81.7534 141.927 80.9359 142.132 79.8894C142.281 79.1314 142.209 78.3951 141.915 77.6806C141.62 76.9658 141.153 76.3917 140.512 75.9578C139.871 75.5239 139.162 75.3079 138.386 75.3095C137.61 75.3113 136.904 75.5271 136.268 75.9563C135.631 76.3857 135.164 76.9616 134.867 77.6835C134.57 78.4056 134.496 79.1441 134.646 79.8986C134.745 80.4058 134.937 80.8689 135.221 81.2878C135.504 81.707 135.854 82.0579 136.271 82.3406C136.687 82.6236 137.146 82.8148 137.647 82.9147ZM136.363 73.1913C137.41 72.8248 138.488 72.7518 139.599 72.9731C140.71 73.1942 141.683 73.6755 142.518 74.4166C143.353 75.158 143.95 76.0548 144.308 77.107C144.666 78.1598 144.735 79.2453 144.516 80.3639C144.296 81.4825 143.821 82.4631 143.091 83.3049C142.361 84.1469 141.47 84.7476 140.419 85.1072C139.368 85.4665 138.287 85.5356 137.176 85.3145C136.065 85.0932 135.094 84.6158 134.264 83.8816C133.434 83.1476 132.837 82.251 132.474 81.1912C132.112 80.1318 132.04 79.0424 132.26 77.9237C132.48 76.8051 132.957 75.8285 133.692 74.9933C134.426 74.1587 135.317 73.558 136.363 73.1913Z" stroke="#2E4B99" stroke-width="0.442944" stroke-miterlimit="10"/>
<path d="M110.272 84.0621C110.272 84.9359 111.014 85.6444 111.928 85.6444C112.842 85.6444 113.583 84.9359 113.583 84.0621C113.583 83.1882 112.842 82.4797 111.928 82.4797C111.014 82.4797 110.272 83.1882 110.272 84.0621Z" fill="#F29100"/>
<path d="M110.29 74.0659V83.7153V84.007C110.29 84.3663 110.173 84.6988 109.975 84.9688C109.674 85.3791 109.185 85.6457 108.634 85.6457C107.72 85.6457 106.979 84.9119 106.979 84.007V80.0806V74.0659H110.29Z" fill="#2E4B99"/>
<path d="M109.939 85.0372C107.927 83.2291 106.979 79.3985 106.979 75.9561C106.979 74.3991 107.72 73.1366 108.634 73.1366C109.548 73.1366 110.29 74.3991 110.29 75.9561C110.29 75.9561 110.29 83.3032 110.29 83.3016C110.29 83.9405 110.164 84.5464 109.939 85.0372Z" fill="#2E4B99"/>
<path d="M106.979 74.4595C106.979 75.3334 107.72 76.0419 108.634 76.0419C109.549 76.0419 110.29 75.3334 110.29 74.4595C110.29 73.5856 109.549 72.8772 108.634 72.8772C107.72 72.8772 106.979 73.5856 106.979 74.4595Z" fill="#2E4B99"/>
<path d="M148.482 84.0621C148.482 84.9359 149.223 85.6444 150.137 85.6444C151.051 85.6444 151.793 84.9359 151.793 84.0621C151.793 83.1882 151.051 82.4797 150.137 82.4797C149.223 82.4797 148.482 83.1882 148.482 84.0621Z" fill="#2E4B99"/>
<path d="M148.499 74.0659V83.7153V84.007C148.499 84.3663 148.382 84.6988 148.184 84.9688C147.883 85.3791 147.395 85.6457 146.844 85.6457C145.929 85.6457 145.188 84.9119 145.188 84.007V80.0806V74.0659H148.499Z" fill="#2E4B99"/>
<path d="M148.148 85.0372C146.136 83.2291 145.189 79.3985 145.188 75.9561C145.188 74.3991 145.929 73.1366 146.844 73.1366C147.758 73.1366 148.499 74.3991 148.499 75.9561C148.499 75.9561 148.499 83.3032 148.499 83.3016C148.499 83.9405 148.374 84.5464 148.148 85.0372Z" fill="#2E4B99"/>
<path d="M145.188 74.4595C145.188 75.3334 145.929 76.0419 146.844 76.0419C147.758 76.0419 148.499 75.3334 148.499 74.4595C148.499 73.5856 147.758 72.8772 146.844 72.8772C145.929 72.8772 145.188 73.5856 145.188 74.4595Z" fill="#2E4B99"/>
<path d="M94.5945 91.6737C90.3382 91.6737 87.1798 89.9712 86.8337 89.7773C86.3965 89.5318 86.0807 89.1298 85.9441 88.6453C85.8073 88.1608 85.8664 87.6515 86.11 87.2118C86.4402 86.6151 87.067 86.2441 87.7462 86.2441C88.0628 86.2441 88.3768 86.3263 88.6549 86.4818C88.7572 86.5384 91.2704 87.9044 94.5706 87.9044C96.5299 87.9044 98.378 87.4257 100.063 86.4815C100.341 86.3255 100.655 86.243 100.972 86.243C101.652 86.243 102.279 86.614 102.61 87.2115C102.853 87.6518 102.912 88.161 102.775 88.6455C102.638 89.1303 102.321 89.5318 101.884 89.7768C99.6393 91.0353 97.1863 91.6737 94.5945 91.6737Z" fill="#2E4B99"/>
<path d="M100.972 85.6827C100.561 85.6827 100.152 85.79 99.7912 85.9926C98.1912 86.8894 96.4342 87.3446 94.5706 87.3446C91.407 87.3446 89.0201 86.0447 88.9201 85.9894C88.5646 85.7905 88.1572 85.6841 87.7464 85.6841C86.8658 85.6841 86.0527 86.1649 85.6241 86.9392C85.308 87.5095 85.2317 88.1698 85.409 88.7984C85.5862 89.4267 85.9959 89.9481 86.5623 90.2664C86.9213 90.4679 90.1948 92.2339 94.5944 92.2339C97.2822 92.2339 99.8257 91.5718 102.155 90.2658C102.722 89.9484 103.132 89.4272 103.31 88.7989C103.487 88.1706 103.412 87.5101 103.096 86.9394C102.667 86.1641 101.854 85.6827 100.972 85.6827ZM100.972 86.8029C101.434 86.8029 101.883 87.0488 102.124 87.4843C102.478 88.1239 102.249 88.9312 101.614 89.2874C99.1711 90.6568 96.7439 91.1136 94.5944 91.1136C90.4266 91.1136 87.2996 89.3975 87.1041 89.2879C86.4692 88.9314 86.2415 88.1239 86.5955 87.4845C86.8365 87.0496 87.2847 86.8043 87.7464 86.8043C87.9628 86.8043 88.1821 86.858 88.3846 86.9713C88.5559 87.0662 91.1453 88.4646 94.5706 88.4646C96.3412 88.4646 98.3342 88.0913 100.333 86.9708C100.536 86.857 100.756 86.8029 100.972 86.8029Z" fill="#F6F6F6"/>
</g>
<path d="M165.306 82.4505H184.577C188.06 82.4505 190.884 79.6271 190.884 76.1442V55.4235C190.884 51.9406 193.707 49.1172 197.19 49.1172H218.459" stroke="#86A7FF" stroke-width="0.900901" stroke-linejoin="round"/>
<path d="M166.207 82.4505H211.056C214.539 82.4505 217.362 85.2739 217.362 88.7568V104.973C217.362 108.456 220.186 111.279 223.668 111.279H272.514" stroke="#86A7FF" stroke-width="0.900901" stroke-linejoin="round"/>
<rect x="218.459" y="32" width="86.4865" height="34.2342" rx="9.00901" fill="#6C94FF" fill-opacity="0.32"/>
<rect x="272.514" y="94.1621" width="86.4865" height="34.2342" rx="9.00901" fill="#6C94FF" fill-opacity="0.32"/>
<defs>
<clipPath id="clip0_133_998">
<rect width="80.1802" height="19.6934" fill="white" transform="translate(71.6126 72.5405)"/>
</clipPath>
</defs>
</svg>
